<?xml version="1.0" standalone="no"?>
<!DOCTYPE svg PUBLIC "-//W3C//DTD SVG 1.1//EN" "http://www.w3.org/Graphics/SVG/1.1/DTD/svg11.dtd" >
<svg xmlns="http://www.w3.org/2000/svg">
<metadata></metadata>
<defs>
<font id="alouisiusbold" horiz-adv-x="1236" >
<font-face units-per-em="2048" ascent="1591" descent="-457" />
<missing-glyph horiz-adv-x="618" />
<glyph horiz-adv-x="2048" />
<glyph horiz-adv-x="2048" />
<glyph unicode="&#xd;" horiz-adv-x="2048" />
<glyph unicode=" "  horiz-adv-x="618" />
<glyph unicode="&#x09;" horiz-adv-x="618" />
<glyph unicode="&#xa0;" horiz-adv-x="618" />
<glyph unicode="!" horiz-adv-x="694" d="M188 1466q1 21 21 21h258q23 0 22 -21l-38 -974q0 -20 -21 -21h-184q-20 0 -21 21zM205 20v234q0 22 20 22h226q23 0 22 -22v-234q0 -20 -22 -20h-226q-20 0 -20 20z" />
<glyph unicode="&#x22;" horiz-adv-x="696" d="M47 1116v486q0 22 23 22h170q23 0 22 -22v-486q0 -23 -22 -22h-170q-23 0 -23 22zM418 1116v486q0 22 20 22h172q20 0 21 -22v-486q0 -23 -21 -22h-172q-20 0 -20 22z" />
<glyph unicode="#" d="M88 461v119q0 20 21 20h196l37 289h-172q-23 0 -23 20v117q0 20 23 21h197l57 421q4 18 20 19h134q20 0 20 -23l-59 -417h225l57 421q4 18 21 19h133q23 0 22 -23l-59 -417h174q20 0 21 -21v-117q0 -20 -21 -20h-197l-38 -289h174q20 0 20 -20v-119q0 -20 -20 -21h-197 l-57 -422q-2 -18 -23 -18h-131q-20 0 -20 23l59 417h-227l-56 -422q-2 -18 -20 -18h-135q-20 0 -21 23l60 417h-174q-20 0 -21 21zM479 600h223l39 289h-223z" />
<glyph unicode="$" d="M70 295q0 12 14 16l223 68l6 2q12 0 19 -19q35 -143 223 -176v453q-180 37 -315.5 142.5t-135.5 305.5q0 104 54.5 205t157 166.5t239.5 65.5v125q0 20 23 20h73q20 0 21 -20v-125q215 0 318.5 -92.5t129.5 -208.5l2 -6q0 -12 -18 -19l-221 -47h-6q-12 0 -19 14 q-23 59 -73 97t-113 38v-423q254 -59 369.5 -162t115.5 -279q0 -225 -134 -340.5t-351 -130.5v-127q0 -20 -21 -20h-73q-23 0 -23 20v127q-152 4 -255 57.5t-156.5 125t-71.5 139.5zM362 1112q0 -74 47.5 -120t145.5 -83v391q-86 -4 -139.5 -54t-53.5 -134zM672 186 q98 17 155.5 70t57.5 135q0 63 -29 104.5t-71 64t-113 48.5v-422z" />
<glyph unicode="%" horiz-adv-x="1740" d="M68 1122q0 106 41 197.5t120.5 148t194.5 56.5q184 0 270 -108.5t86 -293.5q0 -106 -41 -197t-120.5 -147.5t-194.5 -56.5q-180 0 -268 109.5t-88 291.5zM268 1122q0 -254 156 -254q84 0 121 74t37 180q0 252 -158 252q-84 0 -120 -72.5t-36 -179.5zM383 -45q-4 8 2 18 l786 1553q9 14 25 14h123q29 0 14 -24l-788 -1553q-10 -16 -25 -16h-121q-12 0 -16 8zM942 367q0 104 41 195t121 147.5t194 56.5q184 0 271.5 -108.5t87.5 -290.5q0 -106 -41 -197.5t-122 -148t-196 -56.5q-180 0 -268 109.5t-88 292.5zM1143 367q0 -254 155 -254 q84 0 121 72.5t37 181.5q0 252 -158 251q-84 0 -119.5 -72.5t-35.5 -178.5z" />
<glyph unicode="&#x26;" horiz-adv-x="1548" d="M70 418q0 117 51 197.5t112.5 121.5t139.5 78q-74 55 -134.5 145.5t-60.5 196.5q0 195 140.5 281t332.5 86q166 0 268.5 -52.5t147.5 -133.5t45 -169q0 -104 -51 -181t-116.5 -122t-153.5 -90l288 -303q49 61 75 122.5t32 176.5q2 23 24 23h226q20 0 20 -23 q-6 -285 -201 -491l234 -256q6 -6 6 -13q0 -12 -18 -12h-301q-12 0 -25 12l-98 115q-113 -82 -201 -117t-231 -35q-186 0 -310.5 60.5t-182.5 161t-58 221.5zM362 430q0 -111 75 -179.5t188 -68.5q158 0 276 111l-358 366q-78 -41 -129.5 -91t-51.5 -138zM465 1147 q0 -64 37 -115t114 -121q88 51 128 81t63.5 67t23.5 90q0 72 -48 120t-134 48q-90 0 -137 -48t-47 -122z" />
<glyph unicode="'" horiz-adv-x="462" d="M123 1116v486q0 22 20 22h172q20 0 21 -22v-486q0 -23 -21 -22h-172q-20 0 -20 22z" />
<glyph unicode="(" horiz-adv-x="657" d="M76 684q2 473 346 944q12 16 29 6l133 -86q16 -10 6 -26q-119 -201 -186.5 -390.5t-69.5 -447.5q2 -260 68.5 -448.5t187.5 -389.5q4 -8 4 -12q0 -10 -10 -16l-133 -86q-9 -4 -13 -4q-6 0 -16 10q-344 471 -346 946z" />
<glyph unicode=")" horiz-adv-x="657" d="M49 1534q0 10 10 14l131 86q9 4 13 4q10 0 16 -10q344 -471 346 -944q-2 -475 -346 -946q-12 -16 -29 -6l-131 86q-18 10 -6 28q78 131 130.5 245t88 263.5t35.5 329.5q-2 258 -68.5 446.5t-185.5 391.5q-4 4 -4 12z" />
<glyph unicode="*" horiz-adv-x="1044" d="M92 1133l43 133q6 20 29 12l278 -113l-22 301v4q0 16 18 17h152q23 0 18 -21l-22 -301l278 113q4 2 10 2q14 0 19 -14l43 -133l2 -9q0 -12 -16 -18l-291 -76l190 -227q6 -6 6 -15q0 -10 -8 -16l-114 -82q-4 -4 -13 -4q-10 0 -18 10l-160 252l-162 -252q-12 -18 -28 -6 l-115 82q-18 14 -2 31l190 227l-291 76q-20 7 -14 27z" />
<glyph unicode="+" horiz-adv-x="1253" d="M92 449v159q0 20 21 21h405v407q1 21 21 21h159q20 0 21 -21v-407h405q20 0 21 -21v-159q0 -20 -21 -21h-405v-408q0 -20 -21 -20h-159q-20 0 -21 20v408h-405q-20 0 -21 21z" />
<glyph unicode="," horiz-adv-x="618" d="M55 -229l131 485q2 20 23 20h227q23 1 17 -24l-172 -488q-6 -16 -27 -16h-180q-29 0 -19 23z" />
<glyph unicode="-" horiz-adv-x="657" d="M66 539v172q0 20 20 20h471q23 0 23 -20v-172q0 -20 -23 -21h-471q-20 0 -20 21z" />
<glyph unicode="." horiz-adv-x="618" d="M168 20v234q0 22 20 22h226q20 0 20 -22v-234q0 -20 -20 -20h-226q-20 0 -20 20z" />
<glyph unicode="/" horiz-adv-x="813" d="M4 18l598 1522q9 18 27 12l149 -57q25 -6 15 -25l-598 -1519q-8 -20 -27 -14l-152 57q-23 6 -12 24z" />
<glyph unicode="0" d="M63 750q0 346 120 560t427 214t427 -214t120 -560q0 -342 -125 -558.5t-422 -216.5t-422 216.5t-125 558.5zM362 750q0 -269 53.5 -415.5t194.5 -146.5t193.5 146.5t52.5 415.5q0 258 -48 409.5t-198 151.5t-199 -152.5t-49 -408.5z" />
<glyph unicode="1" d="M158 1092q0 12 10 18l473 369q8 8 25 8h233q20 0 21 -21v-1446q0 -20 -21 -20h-260q-20 0 -21 20v1162l-309 -248q-4 -4 -12 -4q-10 0 -16 8l-117 141q-6 6 -6 13z" />
<glyph unicode="2" d="M88 20v179q0 10 10 24l418 410q125 121 207 233.5t82 235.5q0 94 -54.5 151.5t-156.5 57.5q-113 0 -167 -68.5t-65 -163.5q-4 -23 -22 -18l-234 41q-20 2 -16 24q37 186 170 292t350 106q147 0 257 -56.5t167.5 -151.5t57.5 -210q0 -135 -59.5 -248t-176.5 -229 l-418 -416h639q23 0 23 -20v-173q0 -20 -23 -20h-968q-20 0 -21 20z" />
<glyph unicode="3" d="M80 352v6q0 14 16 19l228 49h4q14 0 18 -16q18 -102 77.5 -162t162.5 -60q109 0 168 70t59 168q0 236 -278 236h-64q-23 0 -22 22v178q0 20 22 21h51q115 0 195 55t80 166q0 88 -52.5 147.5t-152.5 59.5q-96 0 -143.5 -47t-75.5 -125q-6 -18 -27 -13l-221 62 q-22 9 -12 29q131 307 497 307q197 0 335 -89t138 -294q0 -121 -72.5 -214t-222.5 -139v-4q326 -57 326 -374q0 -104 -52 -204t-173 -165.5t-314 -65.5q-238 0 -353.5 117t-141.5 260z" />
<glyph unicode="4" d="M59 279v215q0 16 9 26l585 953q8 14 27 14h268q20 0 21 -21v-995h176q20 0 20 -22v-170q0 -23 -20 -23h-176v-236q0 -20 -21 -20h-237q-20 0 -21 20v236h-610q-21 0 -21 23zM299 471h391v408q0 131 25 315h-13q-23 -59 -102 -201z" />
<glyph unicode="5" d="M119 350v8q0 16 16 19l207 43h6q18 0 19 -19q8 -86 59 -149.5t152 -63.5q106 0 169.5 68t63.5 201q0 156 -87 231.5t-235 75.5q-127 0 -268 -74q-8 -4 -12 -4q-12 0 -12 19l16 761q0 20 20 21h803q20 0 21 -21v-172q-1 -20 -21 -20h-573l-8 -324q74 27 176 27 q135 0 244.5 -62.5t173 -176t63.5 -261.5q0 -139 -62.5 -253.5t-181 -181.5t-276.5 -67q-207 0 -317.5 89.5t-155.5 285.5z" />
<glyph unicode="6" d="M92 498q0 141 59.5 289.5t151.5 271.5l309 416q12 12 27 12h303q14 0 17.5 -7t-5.5 -18l-168 -202q-207 -233 -270 -357l4 -4q86 43 189 43q127 0 223 -62.5t146 -169t50 -231.5q0 -139 -58 -253.5t-174 -182.5t-282 -68q-207 0 -323.5 90.5t-157.5 208t-41 224.5z M381 451q0 -115 56.5 -186.5t150.5 -76.5q227 0 239 273q0 117 -62.5 192.5t-176.5 75.5q-41 0 -85 -12t-67 -25q-12 -8 -14 -20q-41 -96 -41 -221z" />
<glyph unicode="7" d="M98 1278v188q0 20 21 21h946q20 0 20 -21v-176q0 -14 -6 -26l-608 -1250q-12 -14 -27 -14h-284q-27 0 -17 25l631 1232h-655q-21 1 -21 21z" />
<glyph unicode="8" d="M100 379q0 96 38 162.5t96.5 112.5t171.5 116q-70 35 -127.5 75t-105.5 114.5t-48 179.5q0 123 65.5 210t177 131t248.5 44q142 0 247.5 -46t161.5 -126t56 -181q0 -223 -262 -366q86 -51 148.5 -99.5t107.5 -126t45 -182.5q0 -111 -58 -207t-173 -155.5t-275 -59.5 q-174 0 -289.5 57.5t-170 149.5t-54.5 197zM389 381q0 -90 57.5 -147.5t159.5 -57.5t157.5 60.5t55.5 160.5q0 137 -164 242l-51 33l-72 -49q-75 -56 -109 -112t-34 -130zM406 1143q0 -139 219 -242q178 115 178 244q0 80 -53.5 129t-135.5 49q-100 0 -154 -50t-54 -130z " />
<glyph unicode="9" d="M92 1020q0 137 58.5 251.5t174 183.5t281.5 69q207 0 324 -90.5t157.5 -208t40.5 -224.5q0 -141 -59 -289.5t-151 -273.5l-312 -426q-8 -12 -24 -12h-303q-14 0 -18.5 7t5.5 18l168 202q214 258 271 369l-5 4q-96 -45 -188 -45q-129 0 -224 62.5t-145.5 169t-50.5 233.5z M393 1036q0 -116 62.5 -192t177.5 -76q74 0 151 39q12 8 15 18q41 96 41 222q0 115 -56.5 186.5t-150.5 77.5q-227 0 -240 -275z" />
<glyph unicode=":" horiz-adv-x="618" d="M168 20v234q0 22 20 22h226q20 0 20 -22v-234q0 -20 -20 -20h-226q-20 0 -20 20zM168 995v234q0 20 20 20h226q20 0 20 -20v-234q0 -23 -20 -22h-226q-20 0 -20 22z" />
<glyph unicode=";" horiz-adv-x="618" d="M55 -229l131 485q2 20 23 20h227q23 1 17 -24l-172 -488q-6 -16 -27 -16h-180q-29 0 -19 23zM168 995v234q0 20 20 20h226q20 0 20 -20v-234q0 -23 -20 -22h-226q-20 0 -20 22z" />
<glyph unicode="&#x3c;" horiz-adv-x="1253" d="M88 461v135q0 16 16 22l1020 445q4 2 11 2q14 0 14 -18v-156q0 -18 -16 -25l-785 -338l785 -338q16 -6 16 -22v-158q0 -26 -25 -16l-1020 444q-16 6 -16 23z" />
<glyph unicode="=" horiz-adv-x="1253" d="M92 225v160q0 20 21 21h1011q20 0 21 -21v-160q-1 -20 -21 -20h-1011q-20 0 -21 20zM92 672v159q0 20 21 21h1011q20 0 21 -21v-159q-1 -21 -21 -21h-1011q-20 0 -21 21z" />
<glyph unicode="&#x3e;" horiz-adv-x="1253" d="M88 10v158q0 16 16 22l785 338l-785 338q-16 6 -16 25v156q0 27 25 16l1020 -445q16 -6 16 -22v-135q0 -16 -16 -23l-1020 -444q-4 -2 -11 -2q-14 0 -14 18z" />
<glyph unicode="?" horiz-adv-x="1122" d="M102 1194q96 330 480 330q133 0 233 -48.5t153.5 -135.5t53.5 -197q0 -164 -152 -301l-90 -82q-113 -100 -112 -185v-83q0 -20 -21 -21h-188q-20 0 -21 21v83q0 142 84 228l111 110q63 63 87.5 115.5t24.5 110.5q0 76 -49 124t-139 48q-152 0 -195 -170q-6 -18 -24 -17 l-221 45q-20 4 -15 25zM420 20v234q0 22 20 22h226q23 0 22 -22v-234q0 -20 -22 -20h-226q-20 0 -20 20z" />
<glyph unicode="@" horiz-adv-x="1671" d="M72 743q0 213 104.5 392.5t277.5 284t369 104.5q223 0 396.5 -85t268.5 -231.5t95 -322.5q0 -197 -91 -333t-214 -202.5t-213 -66.5q-49 0 -84 30.5t-37 87.5h-4q-96 -119 -242 -118q-88 0 -158.5 48t-110.5 129t-40 175q0 133 57.5 255t161 197.5t234.5 75.5 q164 0 243 -141l29 96q4 18 23 19h129q23 0 16 -23l-117 -485q-22 -82 -22 -121q0 -49 41 -49q55 0 111.5 51t93 138t36.5 194q0 164 -74.5 281.5t-203.5 179t-289 61.5q-176 0 -311 -82t-209 -224.5t-74 -318.5q0 -180 79 -320t220.5 -218t319.5 -78q127 0 242.5 44 t197.5 126q10 10 25 10h116q29 0 15 -24q-106 -150 -268 -232t-351 -82q-223 0 -403.5 101.5t-282.5 279.5t-102 397zM598 664q0 -82 45 -135.5t119 -53.5t134 48t94 123t34 149q0 76 -47 126t-119 50t-132 -46t-94 -118t-34 -143z" />
<glyph unicode="A" horiz-adv-x="1507" d="M4 25l545 1445q6 17 22 17h365q18 0 25 -17l526 -1447l2 -9q0 -14 -19 -14h-284q-18 0 -25 16l-112 330h-615l-117 -330q-6 -16 -24 -16h-273q-18 0 -18 15q0 4 2 10zM514 578h459l-164 466q-47 135 -59 205h-11q-14 -98 -53 -205z" />
<glyph unicode="B" horiz-adv-x="1353" d="M143 20v1446q0 21 23 21h584q240 0 353.5 -104.5t113.5 -270.5q0 -123 -68 -217t-203 -121v-4q78 -8 148.5 -52t115.5 -122t45 -184q0 -201 -128 -306.5t-386 -105.5h-575q-23 0 -23 20zM444 229h275q96 0 162.5 49.5t66.5 155.5q0 213 -221 213h-283v-418zM444 877h258 q95 0 154 50t59 148q0 182 -184 182h-287v-380z" />
<glyph unicode="C" horiz-adv-x="1431" d="M82 743q0 250 87 426.5t244.5 265.5t364.5 89q219 0 356.5 -105.5t192.5 -296.5l2 -8q0 -12 -16 -16l-250 -54h-4q-14 0 -19 17q-16 100 -87.5 161.5t-174.5 61.5q-172 0 -269 -133t-97 -408q0 -274 88 -407t248 -133q133 0 208.5 73.5t96.5 167.5q6 18 24 17l252 -55 q18 -3 18 -17q0 -4 -1 -8q-18 -80 -77 -172t-193 -168t-349 -76q-197 0 -342 89t-224 263.5t-79 425.5z" />
<glyph unicode="D" horiz-adv-x="1507" d="M143 20v1446q0 21 23 21h567q162 0 314.5 -70.5t256 -238.5t103.5 -439q0 -367 -205 -553t-569 -186h-467q-23 0 -23 20zM457 238h188q211 0 320.5 141t111.5 366q-2 219 -105.5 361.5t-322.5 142.5h-192v-1011z" />
<glyph unicode="E" horiz-adv-x="1239" d="M143 20v1446q0 21 23 21h921q23 0 23 -21v-196q0 -20 -23 -21h-630v-364h596q20 0 20 -21v-196q0 -20 -20 -21h-596v-409h653q20 0 20 -21v-197q0 -20 -20 -20h-944q-23 0 -23 20z" />
<glyph unicode="F" horiz-adv-x="1198" d="M143 20v1446q0 21 23 21h926q23 0 22 -21v-196q0 -20 -22 -21h-635v-403h608q20 0 20 -21v-196q0 -20 -20 -21h-608v-588q0 -20 -21 -20h-270q-23 0 -23 20z" />
<glyph unicode="G" horiz-adv-x="1470" d="M82 743q0 250 87 426.5t244.5 265.5t364.5 89q242 0 369 -93.5t192 -269.5q2 -4 2 -10q0 -12 -14 -16l-250 -64l-6 -2q-12 0 -18 16q-12 45 -51 91.5t-97.5 77t-126.5 30.5q-172 0 -269 -133t-97 -408q0 -274 97 -407t269 -133q123 0 260 61v334h-235q-23 0 -23 20v189 q0 20 23 20h516q20 0 20 -20v-666q0 -14 -12 -24q-98 -57 -242.5 -104.5t-306.5 -47.5q-207 0 -364.5 89t-244.5 264.5t-87 424.5z" />
<glyph unicode="H" horiz-adv-x="1507" d="M143 20v1446q0 21 23 21h270q20 0 21 -21v-563h577v563q0 20 21 21h272q20 0 21 -21v-1446q0 -20 -21 -20h-272q-20 0 -21 20v644h-577v-644q0 -20 -21 -20h-270q-23 0 -23 20z" />
<glyph unicode="I" horiz-adv-x="618" d="M143 20v1446q0 21 23 21h270q20 0 21 -21v-1446q0 -20 -21 -20h-270q-23 0 -23 20z" />
<glyph unicode="J" horiz-adv-x="849" d="M-27 72l103 184q12 22 28 6q51 -51 123 -51q88 0 124 57.5t36 173.5v1024q0 20 21 21h270q23 0 22 -21v-1056q0 -125 -49 -225.5t-148.5 -160t-244.5 -59.5q-166 0 -281 76q-8 7 -8 16q0 7 4 15z" />
<glyph unicode="K" horiz-adv-x="1392" d="M143 20v1446q0 21 23 21h270q20 0 21 -21v-612h4l500 621q12 12 26 12h326q14 0 17 -7t-5 -18l-571 -678l608 -759q6 -6 6 -13q0 -12 -18 -12h-346q-16 0 -29 12l-514 670h-4v-662q0 -20 -21 -20h-270q-23 0 -23 20z" />
<glyph unicode="L" horiz-adv-x="1083" d="M143 20v1446q0 21 23 21h270q20 0 21 -21v-1220h571q20 0 21 -21v-205q0 -20 -21 -20h-862q-23 0 -23 20z" />
<glyph unicode="M" horiz-adv-x="1972" d="M143 20v1446q0 20 23 21h446q18 0 25 -17l270 -811q41 -123 64 -258h12q37 170 66 258l270 811q6 16 24 17h447q20 0 20 -21v-1446q0 -20 -20 -20h-246q-20 0 -20 20v1078q0 49 4 159h-21q-6 -37 -28.5 -128t-44.5 -158l-326 -955q-6 -16 -27 -16h-209q-18 0 -24 16 l-326 955q-22 69 -46.5 160.5t-29.5 125.5h-18q4 -111 4 -159v-1078q0 -20 -20 -20h-246q-23 0 -23 20z" />
<glyph unicode="N" horiz-adv-x="1585" d="M143 20v1446q0 21 23 21h364q16 0 25 -14l389 -707q66 -119 122 -245t71 -195h14q-14 133 -14 409v731q0 20 20 21h246q23 0 22 -21v-1446q0 -20 -22 -20h-375q-16 0 -24 14l-447 836q-90 168 -127 311h-12q14 -240 14 -344v-797q0 -20 -20 -20h-246q-23 0 -23 20z" />
<glyph unicode="O" horiz-adv-x="1546" d="M68 743q0 250 87 426.5t243.5 265.5t365.5 89t365.5 -89t244.5 -265.5t88 -426.5t-88 -425t-244.5 -264t-365.5 -89t-365.5 89t-243.5 264.5t-87 424.5zM397 743q0 -274 97.5 -407t269.5 -133t270.5 134t98.5 406q0 274 -98.5 407.5t-270.5 133.5t-269.5 -133t-97.5 -408 z" />
<glyph unicode="P" horiz-adv-x="1275" d="M117 20v1446q0 21 20 21h572q254 0 378.5 -127t124.5 -328q0 -164 -71.5 -270.5t-185 -155.5t-244.5 -49h-281v-537q0 -20 -20 -20h-273q-20 0 -20 20zM430 788h209q272 0 272 256q0 94 -50 153.5t-154 59.5h-277v-469z" />
<glyph unicode="Q" horiz-adv-x="1546" d="M68 743q0 250 87 426.5t243.5 265.5t365.5 89t365.5 -89t244.5 -265.5t88 -426.5q0 -268 -99 -449t-280 -263l332 -211q18 -12 4 -29l-149 -168q-7 -8 -16 -8q-6 0 -13 4l-489 346q-195 0 -349.5 86t-244.5 261t-90 431zM397 743q0 -274 97.5 -407t269.5 -133t270.5 134 t98.5 406q0 274 -98.5 407.5t-270.5 133.5t-269.5 -133t-97.5 -408z" />
<glyph unicode="R" horiz-adv-x="1353" d="M143 20v1446q0 20 23 21h602q233 0 350 -116t117 -316q0 -150 -66.5 -236t-189.5 -137l324 -657q4 -4 4 -13q0 -12 -19 -12h-307q-16 0 -23 16l-266 600h-235v-596q0 -20 -21 -20h-270q-23 0 -23 20zM457 846h241q224 0 224 209q0 202 -189 202h-2h-274v-411z" />
<glyph unicode="S" horiz-adv-x="1275" d="M72 295v6q0 12 14 18l242 93l8 2q12 0 16 -17q47 -194 264 -194h2q113 0 179.5 53t66.5 143q0 61 -40 105.5t-138 83.5l-199 76q-178 68 -283.5 162t-105.5 253q0 113 54.5 214.5t176.5 166t310 64.5q195 0 317.5 -62.5t184.5 -222.5l2 -10q0 -10 -17 -17l-245 -82l-9 -2 q-8 0 -16 15q-23 66 -68 107.5t-143 41.5q-117 0 -175 -53t-58 -123q0 -57 26.5 -89t100.5 -64l325 -136q162 -68 238 -161t76 -236q0 -127 -67 -233.5t-196 -169t-311 -62.5q-156 0 -268.5 49t-177 124t-86.5 157z" />
<glyph unicode="T" horiz-adv-x="1161" d="M8 1262v204q0 20 21 21h1087q20 0 21 -21v-204q0 -20 -21 -21h-387v-1221q0 -20 -20 -20h-273q-20 0 -20 20v1221h-387q-21 1 -21 21z" />
<glyph unicode="U" horiz-adv-x="1470" d="M129 586v880q0 20 21 21h260q20 0 20 -21v-880q0 -184 68.5 -283.5t228.5 -99.5t228.5 99t68.5 284v880q0 20 20 21h259q22 -1 22 -21v-880q0 -621 -618 -621q-281 0 -429.5 158t-148.5 463z" />
<glyph unicode="V" horiz-adv-x="1392" d="M8 1473q0 14 19 14h286q19 -1 23 -17l295 -989q10 -39 45 -200h14q16 86 55 211l310 978q6 16 24 17h271q19 0 19 -12q0 -5 -3 -11l-483 -1448q-6 -16 -25 -16h-366q-16 0 -27 16l-455 1448z" />
<glyph unicode="W" horiz-adv-x="2011" d="M14 1473q0 14 19 14h276q20 0 23 -19l168 -804q16 -78 35.5 -209t23.5 -193h21q4 57 21 181t40 229l170 796q4 18 23 19h346q23 0 24 -19l182 -874q29 -119 52 -332h18q6 133 49 350l181 856q4 18 22 19h254q18 0 18 -14q0 -4 -2 -9l-336 -1446q-2 -18 -22 -18h-356 q-18 0 -23 18l-184 850q-14 70 -28.5 190t-16.5 169h-19q-4 -49 -22.5 -159t-32.5 -179l-180 -871q-2 -18 -23 -18h-352q-20 0 -25 18l-342 1446z" />
<glyph unicode="X" horiz-adv-x="1431" d="M22 7q-2 2 -1 5q0 6 6 13l469 751l-428 686q-4 4 -5 13q0 12 17 12h315q16 0 25 -14l186 -322q70 -117 105 -211h8q20 70 94 186l197 347q8 14 24 14h301q12 0 16.5 -7t-3.5 -18l-428 -686l466 -751q4 -4 5 -13q0 -12 -17 -12h-323q-16 0 -25 14l-227 394 q-72 125 -94 196h-15q-39 -98 -104 -211l-217 -379q-12 -14 -27 -14h-303q-13 0 -17 7z" />
<glyph unicode="Y" horiz-adv-x="1392" d="M4 1475q0 12 19 12h319q14 0 27 -14l252 -463q23 -43 73 -174h6q25 84 76 182l248 455q8 14 25 14h305q19 0 19 -11q0 -5 -5 -14l-526 -887v-555q0 -20 -21 -20h-272q-20 0 -21 20v555l-520 887q-4 9 -4 13z" />
<glyph unicode="Z" horiz-adv-x="1198" d="M49 20v211q0 13 10 27l697 991h-664q-20 0 -20 21v196q0 20 20 21h1006q20 0 20 -21v-215q0 -16 -8 -26l-694 -987h694q20 0 20 -21v-197q0 -20 -20 -20h-1038q-23 0 -23 20z" />
<glyph unicode="[" horiz-adv-x="618" d="M137 -250v1813q0 20 23 20h375q20 0 20 -20v-105q0 -20 -20 -20h-150v-1563h150q20 0 20 -20v-105q0 -23 -20 -22h-375q-23 0 -23 22z" />
<glyph unicode="\" horiz-adv-x="813" d="M2 1481q0 12 14 14l152 57l8 2q12 0 19 -14l598 -1522q2 -4 2 -10q0 -12 -17 -14l-149 -57l-8 -3q-12 0 -19 17l-598 1519q-2 4 -2 11z" />
<glyph unicode="]" horiz-adv-x="618" d="M45 -145q0 20 23 20h149v1563h-149q-23 0 -23 20v105q0 20 23 20h374q20 0 21 -20v-1813q-1 -22 -21 -22h-374q-23 0 -23 22v105z" />
<glyph unicode="^" horiz-adv-x="1253" d="M135 690l383 783q9 14 25 14h151q16 0 25 -14l383 -783q4 -8 4 -12q0 -14 -21 -14h-155q-16 0 -25 16l-289 606l-286 -606q-6 -16 -23 -16h-157q-27 0 -15 26z" />
<glyph unicode="_" horiz-adv-x="1044" d="M-8 -178q0 20 20 20h1004q20 0 20 -20v-62q0 -23 -20 -22h-1004q-20 -1 -20 22v62z" />
<glyph unicode="`" horiz-adv-x="581" d="M-43 1677q0 10 16 11h289q14 0 25 -13l180 -268q6 -6 6 -12q0 -12 -20 -13h-170q-16 0 -27 11l-293 270q-6 6 -6 14z" />
<glyph unicode="a" horiz-adv-x="1198" d="M49 352q0 227 162 329.5t436 102.5h131v95q0 86 -48 140t-150 54q-94 0 -137.5 -41t-75.5 -129q-12 -20 -29 -12l-223 59q-23 8 -13 27q66 141 175.5 219t312.5 78q219 0 348 -107.5t129 -343.5v-610q0 -74 8 -193v-4q0 -16 -18 -16h-246q-20 0 -23 20l-10 168 q-168 -213 -383 -213q-162 0 -254 103.5t-92 273.5zM338 379q0 -80 42 -127t114 -47q57 0 95 12t74.5 39t114.5 94v254h-88q-184 0 -268 -56t-84 -169z" />
<glyph unicode="b" horiz-adv-x="1316" d="M137 20v1582q0 22 23 22h258q20 0 20 -22v-498q72 63 116 96t100.5 53.5t129.5 20.5q240 0 338.5 -193.5t98.5 -449.5q0 -322 -110 -489t-325 -167q-98 0 -182 40t-166 132v-127q0 -20 -20 -20h-258q-23 0 -23 20zM438 344q105 -139 242 -139q119 0 176 113.5t57 310.5 q0 415 -246 415h-1q-121 0 -228 -139v-561z" />
<glyph unicode="c" horiz-adv-x="1122" d="M80 621q0 291 133 472t410 181q139 0 238.5 -57.5t153.5 -138.5t70 -154v-4q0 -14 -16 -19l-238 -65l-8 -2q-12 0 -16 18q-6 90 -55.5 149.5t-135.5 59.5q-117 0 -170 -103.5t-53 -314.5q0 -221 48 -338t180 -117q88 0 139 60.5t65 140.5q6 20 25 14l229 -57 q16 -6 16 -17q0 -5 -3 -10q-35 -96 -83 -168.5t-145.5 -124t-251.5 -51.5q-279 0 -405.5 185.5t-126.5 460.5z" />
<glyph unicode="d" horiz-adv-x="1316" d="M80 631q0 256 98 449.5t338 193.5q72 0 128 -20.5t100 -53.5t116 -96v498q0 22 19 22h2h260q20 0 20 -22v-1582q0 -20 -20 -20h-260q-20 0 -21 20v127q-156 -172 -346 -172q-215 0 -324.5 167t-109.5 489zM387 629q0 -197 57.5 -310.5t176.5 -113.5q139 0 239 139v561 q-104 139 -227 139q-246 0 -246 -415z" />
<glyph unicode="e" d="M59 629q0 193 68 338t197 226t309 81q170 0 288.5 -82t179 -221.5t60.5 -308.5v-93q0 -20 -20 -20h-783q0 -141 60.5 -251t206.5 -110q86 0 146 50.5t83 115.5q6 20 27 15l213 -72q22 -7 14 -27q-131 -295 -477 -295q-174 0 -303 79t-199 226.5t-70 348.5zM358 750h502 q0 149 -64 232q-61 79 -163 79h-10h-6q-123 0 -185 -86q-64 -88 -74 -225z" />
<glyph unicode="f" horiz-adv-x="772" d="M18 954v172q0 20 21 21h160v113q0 411 422 411h2q90 0 161 -18q18 -2 19 -23v-170q0 -23 -25 -16q-53 14 -123 14q-156 0 -155 -209v-102h225q20 0 20 -21v-172q0 -20 -20 -20h-225v-914q0 -20 -21 -20h-260q-20 0 -20 20v914h-160q-21 0 -21 20z" />
<glyph unicode="g" horiz-adv-x="1239" d="M47 -100q0 127 67.5 194.5t170.5 116.5q-37 20 -55.5 57t-18.5 74q0 51 35 104.5t86 75.5q-141 68 -195.5 148t-54.5 207q0 111 58.5 201.5t162 143t236.5 52.5q68 0 225 -25h430q23 0 23 -20v-125q0 -23 -23 -23h-223q96 -90 96 -231q0 -90 -48 -174t-158.5 -140.5 t-289.5 -56.5q-41 0 -77 8q-33 -33 -33 -71q0 -20 15.5 -31.5t55.5 -24.5l377 -102q272 -72 273 -305q0 -197 -166 -286t-410 -89q-174 0 -300 40t-192.5 112.5t-66.5 169.5zM311 -66q0 -84 86 -123.5t219 -39.5q279 0 279 153q0 53 -36 82t-107 47l-310 78 q-131 -88 -131 -197zM352 877q0 -90 62.5 -143.5t163.5 -53.5q98 0 158.5 54t60.5 143q0 98 -64.5 147t-150.5 49q-115 0 -172.5 -52t-57.5 -144z" />
<glyph unicode="h" horiz-adv-x="1316" d="M137 20v1582q0 22 23 22h258q20 0 20 -22v-539q98 94 197.5 152.5t220.5 58.5q305 0 305 -367v-887q0 -20 -20 -20h-260q-20 0 -21 20v822q0 86 -41 132t-114 46q-66 0 -119.5 -34t-147.5 -124v-842q0 -20 -20 -20h-258q-23 0 -23 20z" />
<glyph unicode="i" horiz-adv-x="581" d="M131 20v1209q1 20 21 20h260q20 0 20 -20v-1209q0 -20 -20 -20h-260q-20 0 -21 20zM131 1421v181q1 22 21 22h260q20 0 20 -22v-181q0 -22 -18 -22h-2h-260q-20 0 -21 22z" />
<glyph unicode="j" horiz-adv-x="581" d="M-82 -385l10 184q4 23 27 17q25 -8 53 -9q123 0 123 173v1249q1 20 21 20h260q20 0 20 -20v-1309q0 -166 -95 -254t-259 -88q-84 0 -144 14q-17 3 -17 17q0 3 1 6zM131 1421v181q1 22 21 22h260q20 0 20 -22v-181q0 -22 -18 -22h-2h-260q-20 0 -21 22z" />
<glyph unicode="k" horiz-adv-x="1239" d="M139 20v1582q0 22 21 22h2h258h2q18 0 18 -22v-906h4l390 545q10 12 24 12h301q12 0 16.5 -7t-4.5 -17l-428 -565l465 -639q4 -4 4 -13q0 -12 -18 -12h-313q-16 0 -25 12l-412 615h-4v-607q0 -20 -20 -20h-258q-23 0 -23 20z" />
<glyph unicode="l" horiz-adv-x="581" d="M131 20v1582q1 22 21 22h260q20 0 20 -22v-1582q0 -20 -20 -20h-260q-20 0 -21 20z" />
<glyph unicode="m" horiz-adv-x="1972" d="M137 20v1209q0 20 23 20h258q20 0 20 -20v-164q76 74 125 115t112.5 67.5t141.5 26.5q211 0 291 -209q190 209 395 209q162 0 238 -99.5t76 -269.5v-885q0 -20 -21 -20h-258q-20 0 -20 20v814q0 88 -39 137t-109 49q-59 0 -105 -29.5t-137 -126.5v-844q0 -20 -20 -20 h-260q-20 0 -21 20v814q0 88 -38.5 137t-106.5 49q-59 0 -107.5 -29.5t-136.5 -126.5v-844q0 -20 -20 -20h-258q-23 0 -23 20z" />
<glyph unicode="n" horiz-adv-x="1316" d="M137 20v1209q0 20 23 20h258q20 0 20 -20v-166q98 94 197.5 152.5t220.5 58.5q305 0 305 -367v-887q0 -20 -20 -20h-260q-20 0 -21 20v822q0 86 -41 132t-114 46q-66 0 -119.5 -34t-147.5 -124v-842q0 -20 -20 -20h-258q-23 0 -23 20z" />
<glyph unicode="o" horiz-adv-x="1277" d="M59 629q0 190 71 336.5t200 227.5t301 81q180 0 309 -81t196.5 -226.5t67.5 -337.5q0 -201 -72.5 -348.5t-202.5 -226.5t-298 -79q-174 0 -303 79t-199 226.5t-70 348.5zM373 625q0 -437 258 -437q260 0 260 437q0 436 -260 436q-258 0 -258 -436z" />
<glyph unicode="p" horiz-adv-x="1316" d="M137 -387v1616q0 20 23 20h258q20 0 20 -20v-125q72 63 116 96t100.5 53.5t129.5 20.5q240 0 338.5 -193.5t98.5 -449.5q0 -322 -110 -489t-325 -167q-98 0 -182 40t-166 132v-534q0 -20 -20 -21h-258q-23 0 -23 21zM438 344q105 -139 242 -139q119 0 176 113.5t57 310.5 q0 415 -246 415h-1q-121 0 -228 -139v-561z" />
<glyph unicode="q" horiz-adv-x="1316" d="M80 631q0 256 98 449.5t338 193.5q72 0 128 -20.5t100 -53.5t116 -96v125q0 20 21 20h260q20 0 20 -20v-1616q0 -21 -20 -21h-260q-20 0 -21 21v534q-156 -172 -346 -172q-215 0 -324.5 167t-109.5 489zM387 629q0 -197 57.5 -310.5t176.5 -113.5q139 0 239 139v561 q-104 139 -227 139q-246 0 -246 -415z" />
<glyph unicode="r" horiz-adv-x="849" d="M137 20v1209q0 20 23 20h258q20 0 20 -20v-176h4q168 221 355 221q25 0 37 -2q18 -2 18 -21v-233q0 -25 -23 -21q-43 6 -84 7q-98 0 -165.5 -46.5t-141.5 -126.5v-811q0 -20 -20 -20h-258q-23 0 -23 20z" />
<glyph unicode="s" horiz-adv-x="1083" d="M49 274v5q0 14 17 20l217 68l8 2q12 0 18 -19q27 -80 79 -121t144 -41q96 0 142.5 51.5t46.5 108.5q0 59 -36 89t-101 50l-193 60q-311 96 -311 348q0 190 129 284.5t321 94.5q190 0 304 -76t159 -194l2 -9q0 -12 -18 -18l-209 -64l-10 -2q-10 0 -17 17q-18 61 -63 103 t-148 42q-68 0 -114.5 -34.5t-46.5 -104.5q0 -61 34.5 -88t96.5 -47l239 -80q283 -92 283 -340q0 -403 -533 -404q-201 0 -302 91.5t-138 207.5z" />
<glyph unicode="t" horiz-adv-x="849" d="M18 954v172q0 20 21 21h160v268q0 16 16 23l260 108q4 2 10 2q14 0 15 -18v-383h270q23 0 23 -21v-172q0 -20 -23 -20h-270v-514q0 -78 8 -121t41 -68.5t100 -25.5q68 0 123 16l8 2q16 0 17 -18v-174q0 -18 -19 -25q-92 -31 -217 -31q-195 0 -278.5 111t-83.5 289v559 h-160q-20 0 -21 20z" />
<glyph unicode="u" horiz-adv-x="1275" d="M125 342v887q0 20 20 20h261q20 0 20 -20v-821q0 -86 39 -132.5t102 -46.5q66 0 117 35t150 127v838q0 20 20 20h260q20 0 21 -20v-1209q-1 -20 -21 -20h-260q-20 0 -20 20v170q-96 -96 -195.5 -155.5t-222.5 -59.5q-158 0 -224.5 103.5t-66.5 263.5z" />
<glyph unicode="v" horiz-adv-x="1161" d="M2 1235q0 14 18 14h281q18 0 23 -16l190 -637q23 -82 43 -211l14 -82h15q14 145 57 291l199 639q6 16 24 16h258q20 0 20 -12q0 -4 -3 -10l-385 -1211q-6 -16 -25 -16h-315q-18 0 -25 16l-387 1211z" />
<glyph unicode="w" horiz-adv-x="1894" d="M6 1235q0 14 21 14h272q20 0 23 -18l151 -588q25 -96 51 -248q6 -27 21 -102h12q10 104 68 350l133 588q4 18 22 18h340q20 0 23 -18l141 -602q47 -197 70 -336h14q8 113 68 350l135 588q4 18 22 18h258q20 0 20 -14q0 -3 -1 -8l-318 -1209q-2 -18 -22 -18h-342 q-18 0 -23 18l-164 668q-22 88 -53 262h-12q-2 -72 -41 -246l-156 -684q-2 -18 -22 -18h-340q-20 0 -25 16l-344 1211z" />
<glyph unicode="x" horiz-adv-x="1198" d="M8 25l379 641l-334 559q-4 4 -4 12q0 12 19 12h292q18 0 27 -14l154 -289q49 -94 63 -127h8q37 84 52 111l170 305q8 14 24 14h268q29 0 15 -24l-336 -555l369 -645q4 -8 4 -13q0 -12 -19 -12h-303q-16 0 -25 14l-196 371q-31 57 -43 98h-10q-16 -29 -52 -98l-206 -371 q-8 -14 -25 -14h-276q-20 0 -20 11q0 6 5 14z" />
<glyph unicode="y" horiz-adv-x="1161" d="M2 1235q0 14 18 14h281q18 0 25 -16l186 -578q14 -45 49 -209q6 -43 19 -98h12q14 143 63 299l187 586q6 16 24 16h258q18 0 18 -14q0 -3 -1 -8l-445 -1313q-59 -176 -145 -256t-240 -80q-98 0 -196 25q-20 4 -17 22l11 191q4 22 24 16q61 -16 100 -16t68 12t63.5 56 t69.5 136l-430 1207z" />
<glyph unicode="z" horiz-adv-x="1083" d="M39 20v166q0 17 8 27l600 823h-561q-20 0 -20 21v172q0 20 20 20h899q23 0 23 -20v-168q0 -16 -9 -27l-602 -821h611q20 0 20 -20v-173q0 -20 -20 -20h-947q-23 0 -22 20z" />
<glyph unicode="{" horiz-adv-x="735" d="M57 602v111q1 20 21 22q61 6 107 57.5t46 137.5v389q0 82 40 142.5t100.5 91t120.5 30.5h159q20 0 21 -20v-105q0 -20 -21 -20h-86q-109 0 -108 -154v-383q-2 -129 -66.5 -182t-134.5 -62v-4q72 -8 135.5 -60t65.5 -181v-385q0 -152 108 -152h86q20 0 21 -20v-105 q0 -23 -21 -22h-159q-59 0 -120 30.5t-101 91t-40 144.5v389q0 86 -46 137t-107 60q-20 2 -21 22z" />
<glyph unicode="|" horiz-adv-x="462" d="M123 -502v2048q0 21 20 21h160q20 0 21 -21v-2048q0 -20 -21 -20h-160q-20 0 -20 20z" />
<glyph unicode="}" horiz-adv-x="735" d="M45 -145q0 20 23 20h84q111 0 110 152v385q2 129 65.5 181t133.5 60v4q-70 8 -133.5 61.5t-65.5 182.5v383q0 154 -110 154h-84q-23 0 -23 20v105q0 20 23 20h159q59 0 120 -30.5t100.5 -91t39.5 -142.5v-389q0 -88 46.5 -139.5t107.5 -57.5q20 -2 21 -22v-111 q-1 -20 -21 -22q-63 -8 -108.5 -58.5t-45.5 -136.5v-389q0 -84 -39.5 -144.5t-100 -91t-120.5 -30.5h-159q-23 0 -23 22v105z" />
<glyph unicode="~" horiz-adv-x="1253" d="M139 512q0 10 4 16q92 166 254 166q76 0 232 -67l53 -23q119 -53 160 -53q51 0 88 31.5t80 93.5q6 12 16 12q6 0 12 -14l56 -117q4 -8 4 -12q0 -8 -8 -15q-53 -78 -110.5 -123t-139.5 -45q-53 0 -100.5 17.5t-112.5 52.5q-129 74 -240 74q-98 0 -162 -121q-6 -12 -14 -12 t-14 12l-56 115q-2 4 -2 12z" />
<glyph unicode="&#xa1;" horiz-adv-x="694" d="M188 -217l37 975q0 20 21 20h184q20 0 21 -20l38 -975q1 -21 -22 -21h-258q-20 0 -21 21zM205 995v234q0 20 20 20h226q23 0 22 -20v-234q1 -22 -22 -22h-226q-20 0 -20 22z" />
<glyph unicode="&#xa2;" d="M98 621q0 291 133.5 472t409.5 181q76 0 131 -12l47 139q6 23 27 16l69 -24q18 -6 13 -25l-45 -141q170 -74 239 -264q2 -2 2 -9q0 -10 -14 -16l-211 -76l-10 -2q-12 0 -19 17q-20 68 -63 110l-252 -780q37 -18 84 -19q100 0 150.5 40t84.5 139q6 18 27 12l213 -64 q20 -6 14 -26q-109 -313 -497 -314q-78 0 -144 17l-47 -139q-6 -23 -26 -17l-70 25q-18 6 -12 24l47 146q-146 75 -213.5 234t-67.5 356zM412 643q0 -240 51 -344l244 752q-35 10 -72 10q-117 0 -170 -103.5t-53 -314.5z" />
<glyph unicode="&#xa3;" d="M113 20v173q0 20 20 20h143v455h-137q-20 0 -20 22v150q0 20 20 20h137v187q0 115 42 222t148.5 181t285.5 74q178 0 280.5 -65.5t151.5 -217.5l2 -10q0 -10 -17 -17l-225 -59l-10 -2q-8 0 -16 14q-39 143 -177 144q-109 0 -147.5 -75t-38.5 -196v-180h293q20 0 20 -20 v-150q0 -23 -20 -22h-293v-455h524q23 0 23 -20v-173q0 -20 -23 -20h-946q-20 0 -20 20z" />
<glyph unicode="&#xa4;" d="M86 309q-14 14 0 29l104 106q-102 119 -102 299t102 299l-104 107q-14 14 0 29l82 82q6 6 14 6q6 0 15 -6l102 -105q117 104 311 105q195 0 312 -105l102 105q16 12 29 0l82 -82q14 -14 0 -29l-105 -107q102 -119 103 -299q0 -180 -103 -299l105 -106q14 -14 0 -29 l-82 -82q-6 -6 -15 -6q-4 0 -14 6l-102 105q-121 -104 -312 -105q-190 0 -311 105l-102 -105q-16 -12 -29 0zM289 743q0 -88 43 -162.5t116.5 -117.5t161.5 -43t162 43t117 117.5t43 162.5t-43 163t-117 118t-162 43t-161.5 -43t-116.5 -118t-43 -163z" />
<glyph unicode="&#xa5;" d="M2 1475q0 12 18 12h289q16 0 23 -17l284 -667h13l284 667q6 16 23 17h262q31 0 16 -25l-387 -782h222q20 0 20 -23v-92q0 -20 -20 -20h-289v-125h289q20 0 20 -21v-92q0 -20 -20 -20h-289v-267q0 -20 -21 -20h-258q-23 0 -22 20v267h-287q-22 0 -22 20v92q0 20 22 21h287 v125h-287q-23 0 -22 20v92q0 23 22 23h221l-387 782q-4 8 -4 13z" />
<glyph unicode="&#xa6;" horiz-adv-x="462" d="M123 -344v688q0 23 20 23h160q20 0 21 -23v-688q0 -23 -21 -23h-160q-20 0 -20 23zM123 700v689q0 22 20 22h160q20 0 21 -22v-689q0 -20 -21 -20h-160q-20 0 -20 20z" />
<glyph unicode="&#xa7;" d="M135 -20q0 12 12 18l181 88q4 2 10 2q10 0 16 -12q72 -164 238 -164q94 0 138 45t44 96q0 59 -37 90t-137 76l-219 100q-236 109 -236 314q0 102 62.5 174t159.5 106q-78 47 -126 105.5t-48 161.5q0 90 44 167.5t142 127t248 49.5q303 6 417 -211q2 -4 3 -13 q0 -12 -13 -18l-178 -94q-8 -4 -12 -4q-10 0 -15 12q-31 63 -76.5 101t-127.5 38q-63 0 -118.5 -31.5t-55.5 -105.5q0 -57 34.5 -92t104.5 -66l264 -118q117 -53 175 -134t58 -178q0 -193 -190 -268q88 -55 116.5 -117.5t28.5 -132.5q0 -96 -44 -182t-146 -142.5t-262 -56.5 q-125 0 -219.5 42t-151.5 101.5t-82 116.5zM383 680q0 -49 34 -89t87 -63l254 -114q33 18 63.5 57t30.5 88q0 63 -44 104.5t-124 77.5l-184 86q-49 -20 -83 -59t-34 -88z" />
<glyph unicode="&#xa8;" horiz-adv-x="581" d="M-90 1421v181q0 23 20 22h260q21 1 21 -22v-181q0 -23 -21 -22h-260q-20 0 -20 22zM352 1421v181q0 23 23 22h258q20 1 20 -22v-181q0 -23 -20 -22h-258q-23 0 -23 22z" />
<glyph unicode="&#xa9;" horiz-adv-x="1671" d="M47 743q0 211 105.5 390.5t284.5 285t390 105.5t390.5 -105.5t284 -285t104.5 -390.5t-104.5 -390t-284 -283.5t-390.5 -104.5t-390 104.5t-284.5 283.5t-105.5 390zM221 743q0 -163 82 -302.5t221.5 -221.5t302.5 -82q164 0 303.5 82t221.5 221.5t82 302.5 q0 164 -82 303.5t-221.5 221.5t-303.5 82t-303 -82t-221 -221.5t-82 -303.5zM420 748q0 135 52 240.5t150.5 164.5t229.5 59q141 0 239.5 -77.5t125.5 -221.5l2 -6q0 -16 -23 -16h-119q-16 0 -22 18q-16 70 -71.5 110t-131.5 40q-113 0 -176.5 -86t-63.5 -221 q0 -129 68 -220.5t176 -91.5q78 0 131 42t70 114q4 18 20 18h127q23 1 19 -22q-31 -143 -131.5 -223t-235.5 -80q-127 0 -226.5 60.5t-154.5 164.5t-55 234z" />
<glyph unicode="&#xaa;" horiz-adv-x="772" d="M20 969q0 135 102.5 198.5t254.5 63.5h127v55q0 111 -129 111q-59 0 -90 -22.5t-49 -67.5q-6 -20 -25 -17l-129 37q-24 7 -14 27q82 170 317 170q158 0 239 -64.5t81 -208.5v-366q0 -57 6 -107q0 -20 -21 -20h-158q-20 0 -20 20v92h-8q-113 -127 -252 -127 q-106 0 -169 62.5t-63 163.5zM221 985q0 -49 26.5 -77.5t74.5 -28.5q92 0 182 90v147h-86q-197 0 -197 -131z" />
<glyph unicode="&#xab;" horiz-adv-x="1122" d="M53 612q-12 14 0 29l344 473q13 16 29 6l131 -88q16 -12 4 -28l-248 -377l248 -377q4 -4 4 -12q0 -10 -8 -17l-131 -86q-8 -4 -12 -4q-6 0 -17 10zM541 612q-8 14 0 29l344 473q16 16 30 6l132 -88q16 -12 4 -28l-248 -377l248 -377q4 -4 4 -12q0 -10 -8 -17l-132 -86 q-8 -4 -12 -4q-8 0 -18 10z" />
<glyph unicode="&#xac;" horiz-adv-x="1253" d="M92 672v159q0 20 21 21h1011q20 0 21 -21v-585q0 -20 -21 -21h-159q-20 0 -21 21v405h-831q-21 1 -21 21z" />
<glyph unicode="&#xad;" horiz-adv-x="657" d="M66 539v172q0 20 20 20h471q23 0 23 -20v-172q0 -20 -23 -21h-471q-20 0 -20 21z" />
<glyph unicode="&#xae;" horiz-adv-x="1671" d="M47 743q0 211 105.5 390.5t284.5 285t390 105.5t390.5 -105.5t284 -285t104.5 -390.5t-104.5 -390t-284 -283.5t-390.5 -104.5t-390 104.5t-284.5 283.5t-105.5 390zM221 743q0 -163 82 -302.5t221.5 -221.5t302.5 -82q164 0 303.5 82t221.5 221.5t82 302.5 q0 164 -82 303.5t-221.5 221.5t-303.5 82t-303 -82t-221 -221.5t-82 -303.5zM504 334v829q0 20 20 21h310q170 0 256 -60.5t86 -197.5q0 -113 -63.5 -175.5t-162.5 -66.5l213 -346q4 -8 4 -12q0 -12 -18 -13h-133q-14 0 -27 15l-203 346h-110v-340q0 -20 -21 -21h-131 q-20 0 -20 21zM676 801h155q173 0 173 125q0 57 -42 84.5t-106 27.5h-180v-237z" />
<glyph unicode="&#xaf;" horiz-adv-x="581" d="M-41 1477v116q0 20 21 21h606q20 -1 20 -21v-116q0 -20 -20 -21h-606q-20 0 -21 21z" />
<glyph unicode="&#xb0;" horiz-adv-x="835" d="M111 1225q0 80 39.5 149.5t108.5 109.5t151 40t150.5 -40t108.5 -109.5t40 -149.5q0 -82 -40 -150.5t-108.5 -108.5t-150.5 -40t-151 40t-108.5 108.5t-39.5 150.5zM256 1225q0 -64 45 -109t109 -45q63 0 107 45t44 109q0 63 -44 107t-107 44t-108.5 -44t-45.5 -107z" />
<glyph unicode="&#xb1;" horiz-adv-x="1253" d="M92 20v160q1 21 21 21h1011q20 0 21 -21v-160q0 -20 -21 -20h-1011q-20 0 -21 20zM92 586v157q0 20 21 21h405v272q1 21 21 21h159q20 0 21 -21v-272h405q20 0 21 -21v-157q0 -23 -21 -23h-405v-270q0 -20 -21 -21h-159q-20 0 -21 21v270h-405q-20 0 -21 23z" />
<glyph unicode="&#xb2;" horiz-adv-x="804" d="M55 1280q51 244 363 244q145 0 230 -73t85 -183q0 -141 -151 -287l-238 -215h361q20 0 20 -21v-116q0 -20 -20 -21h-617q-20 0 -20 21v92q0 10 10 24l266 240q82 74 135 136.5t53 119.5q0 123 -137 123q-63 0 -101 -34t-48 -79q-6 -18 -25 -16l-149 22q-20 0 -17 23z" />
<glyph unicode="&#xb3;" horiz-adv-x="804" d="M53 819q0 12 17 17l131 26h6q12 0 18 -16q14 -43 57.5 -72t96.5 -29q72 0 110.5 37t38.5 84q0 68 -50 101.5t-134 33.5h-35q-20 0 -20 21v94q0 20 20 21q90 6 145.5 31.5t55.5 95.5q0 47 -34 79.5t-93 32.5q-96 0 -141 -78q-8 -16 -27 -12l-133 35q-23 6 -12 27 q86 176 323 176q129 0 219 -54.5t90 -179.5q0 -70 -46 -126t-134 -85v-4q199 -33 199 -219q0 -63 -33 -122.5t-108.5 -99.5t-194.5 -40q-137 0 -216 54t-114 163q-2 2 -2 8z" />
<glyph unicode="&#xb4;" horiz-adv-x="581" d="M96 1407l183 268q8 13 24 13h289q14 0 17 -7.5t-7 -17.5l-295 -270q-8 -10 -24 -11h-172q-29 0 -15 25z" />
<glyph unicode="&#xb5;" horiz-adv-x="1275" d="M125 -387v1616q0 20 20 20h261q20 0 20 -20v-791q0 -125 40 -167t114 -42q59 0 100 26t111 95l43 41v838q0 20 20 20h260q20 0 21 -20v-1209q0 -20 -21 -20h-260q-20 0 -20 20v146h-5q-39 -90 -90 -136t-143 -46q-109 0 -166 92h-4v-463q0 -20 -20 -21h-261q-20 0 -20 21 z" />
<glyph unicode="&#xb6;" horiz-adv-x="1253" d="M14 1104q0 383 498 383h567q23 0 23 -21v-1697q0 -20 -23 -21h-170q-20 0 -20 21v1562h-221v-1562q0 -20 -21 -21h-170q-23 0 -22 21v964q-201 0 -321 101.5t-120 269.5z" />
<glyph unicode="&#xb7;" horiz-adv-x="618" d="M129 612q0 72 51 122t121 50q72 0 122 -50t50 -122q0 -70 -50 -121t-122 -51q-70 0 -121 51.5t-51 120.5z" />
<glyph unicode="&#xb8;" horiz-adv-x="581" d="M27 -395l20 51q12 18 29 12q100 -37 160 -37q43 0 74.5 23.5t31.5 58.5q0 39 -24.5 62.5t-65.5 23.5q-47 0 -76 -12q-4 -2 -12 -2q-6 0 -17 6l-16 10q-16 12 -6 29l102 156q8 14 25 14h61q13 0 17 -7t-4 -18l-70 -106q45 10 82 10q94 0 137 -49t43 -109 q0 -37 -21.5 -79.5t-76.5 -75.5t-150 -33q-100 0 -231 45q-20 6 -12 27z" />
<glyph unicode="&#xb9;" horiz-adv-x="804" d="M66 1251q0 8 10 15l295 213q10 8 26 8h144q20 0 20 -21v-837q0 -20 -20 -21h-158q-23 0 -23 21v678l-192 -146q-6 -6 -14 -6q-10 0 -17 8l-65 74q-6 6 -6 14z" />
<glyph unicode="&#xba;" horiz-adv-x="811" d="M18 1137q0 174 99.5 280.5t281.5 106.5q178 0 277.5 -106.5t99.5 -280.5q0 -182 -100.5 -288t-276.5 -106t-278.5 105.5t-102.5 288.5zM233 1133q0 -254 166 -254q162 0 162 254q0 129 -43 191t-119 62q-78 0 -122 -62t-44 -191z" />
<glyph unicode="&#xbb;" horiz-adv-x="1122" d="M49 1014q0 10 10 16l131 86q8 4 13 4q10 0 16 -10l344 -469q8 -14 0 -29l-344 -473q-13 -16 -29 -6l-131 86q-20 12 -4 29l248 379l-248 374q-6 6 -6 13zM539 1014q0 10 8 16l133 86q8 4 12 4q10 0 17 -10l344 -469q8 -14 0 -29l-344 -473q-13 -16 -29 -6l-133 86 q-16 12 -4 29l250 379l-250 374q-4 4 -4 13z" />
<glyph unicode="&#xbc;" horiz-adv-x="1857" d="M66 1251q0 8 10 15l295 213q10 8 26 8h144q20 0 20 -21v-837q0 -20 -20 -21h-158q-23 0 -23 21v678l-192 -146q-6 -6 -14 -6q-10 0 -17 8l-65 74q-6 6 -6 14zM424 -45q-4 8 2 18l788 1553q9 14 25 14h121q29 0 14 -24l-786 -1553q-10 -16 -27 -16h-121q-12 0 -16 8z M1016 164v127q0 16 8 26l375 562q8 14 26 14h177q23 0 22 -23v-581h102q20 0 21 -21v-104q0 -23 -21 -23h-102v-121q0 -20 -22 -20h-144q-20 0 -20 20v121h-402q-20 0 -20 23zM1184 289h254v239q0 91 16 189h-8q-23 -49 -68 -121z" />
<glyph unicode="&#xbd;" horiz-adv-x="1857" d="M66 1251q0 8 10 15l295 213q10 8 26 8h144q20 0 20 -21v-837q0 -20 -20 -21h-158q-23 0 -23 21v678l-192 -146q-6 -6 -14 -6q-10 0 -17 8l-65 74q-6 6 -6 14zM360.5 -45q-4.5 8 1.5 18l789 1553q9 14 25 14h120q31 0 17 -24l-789 -1553q-10 -16 -24 -16h-121 q-14 0 -18.5 8zM1026 670q51 244 363 243q145 0 230 -72.5t85 -183.5q0 -147 -152 -284l-235 -215h358q20 0 21 -23v-117q0 -20 -21 -20h-616q-20 0 -21 20v93q1 10 11 24l268 242q186 166 186 254q0 123 -137 123q-63 0 -100 -33t-47 -80q-6 -18 -27 -16l-150 22 q-20 0 -16 23z" />
<glyph unicode="&#xbe;" horiz-adv-x="1857" d="M61 819q0 12 17 17l131 26h6q12 0 18 -16q14 -43 57.5 -72t96.5 -29q72 0 111 37t39 84q0 68 -50.5 101.5t-134.5 33.5h-35q-20 0 -20 21v94q0 20 20 21q90 6 145.5 31.5t55.5 95.5q0 47 -32.5 79.5t-94.5 32.5q-96 0 -141 -78q-8 -16 -27 -12l-133 35q-23 6 -12 27 q86 176 323 176q129 0 219.5 -54.5t90.5 -179.5q0 -70 -46.5 -126t-134.5 -85v-4q199 -33 199 -219q0 -63 -32.5 -122.5t-108.5 -99.5t-195 -40q-137 0 -216 54t-114 163zM465 -45q-4 8 2 18l788 1553q9 14 25 14h121q31 0 16 -24l-788 -1553q-10 -16 -25 -16h-121 q-14 0 -18 8zM1016 164v127q0 16 8 26l375 562q8 14 26 14h177q23 0 22 -23v-581h102q20 0 21 -21v-104q0 -23 -21 -23h-102v-121q0 -20 -22 -20h-144q-20 0 -20 20v121h-402q-20 0 -20 23zM1184 289h254v239q0 91 16 189h-8q-23 -49 -68 -121z" />
<glyph unicode="&#xbf;" horiz-adv-x="1122" d="M84 106q0 166 149 302l91 81q113 96 112 185v84q0 20 21 20h188q20 0 21 -20v-84q0 -140 -82 -228l-111 -110q-66 -66 -90.5 -117t-24.5 -108q0 -76 49.5 -124t139.5 -48q92 0 137 53t57 117q6 18 25 16l221 -45q23 -4 17 -25q-96 -330 -480 -329q-135 0 -234.5 48 t-152.5 135t-53 197zM418 995v234q0 20 20 20h226q23 0 22 -20v-234q1 -22 -22 -22h-226q-20 0 -20 22z" />
<glyph unicode="&#xc0;" horiz-adv-x="1507" d="M4 25l545 1445q6 17 22 17h365q18 0 25 -17l526 -1447l2 -9q0 -14 -19 -14h-284q-18 0 -25 16l-112 330h-615l-117 -330q-6 -16 -24 -16h-273q-23 0 -16 25zM420 1884q0 10 16 10h289q16 0 25 -12l182 -268q4 -8 4 -12q0 -12 -18 -13h-173q-16 0 -24 10l-295 271 q-6 6 -6 14zM514 578h459l-164 466q-47 135 -59 205h-11q-14 -98 -53 -205z" />
<glyph unicode="&#xc1;" horiz-adv-x="1507" d="M4 25l545 1445q6 17 22 17h365q18 0 25 -17l526 -1447l2 -9q0 -14 -19 -14h-284q-18 0 -25 16l-112 330h-615l-117 -330q-6 -16 -24 -16h-273q-23 0 -16 25zM514 578h459l-164 466q-47 135 -59 205h-11q-14 -98 -53 -205zM559 1614l182 268q11 12 25 12h289q14 0 17 -7 t-7 -17l-295 -271q-8 -10 -25 -10h-170q-31 0 -16 25z" />
<glyph unicode="&#xc2;" horiz-adv-x="1507" d="M4 25l545 1445q6 17 22 17h365q18 0 25 -17l526 -1447l2 -9q0 -14 -19 -14h-284q-18 0 -25 16l-112 330h-615l-117 -330q-6 -16 -24 -16h-273q-23 0 -16 25zM386 1597.5q-3 8.5 5 16.5l207 268q12 12 27 12h241q13 0 29 -12l207 -268q6 -6 6 -12q0 -12 -18 -13h-189 q-16 0 -29 13l-127 167l-127 -167q-12 -12 -26 -13h-189q-14 0 -17 8.5zM514 578h459l-164 466q-47 135 -59 205h-11q-14 -98 -53 -205z" />
<glyph unicode="&#xc3;" horiz-adv-x="1507" d="M4 25l545 1445q6 17 22 17h365q18 0 25 -17l526 -1447l2 -9q0 -14 -19 -14h-284q-18 0 -25 16l-112 330h-615l-117 -330q-6 -16 -24 -16h-273q-23 0 -16 25zM371 1634q29 127 80 178.5t141 51.5q55 0 158 -41q98 -37 145 -37q70 0 92 72q4 16 25 16h94q23 0 16 -23 q-31 -127 -81 -178t-140 -51q-49 0 -158 39q-98 37 -145 37q-72 0 -94 -70q-2 -18 -23 -18h-94q-22 -1 -16 24zM514 578h459l-164 466q-47 135 -59 205h-11q-14 -98 -53 -205z" />
<glyph unicode="&#xc4;" horiz-adv-x="1507" d="M4 25l545 1445q6 17 22 17h365q18 0 25 -17l526 -1447l2 -9q0 -14 -19 -14h-284q-18 0 -25 16l-112 330h-615l-117 -330q-6 -16 -24 -16h-273q-23 0 -16 25zM375 1628v180q0 23 20 23h258q21 0 21 -23v-180q0 -23 -21 -22h-258q-20 0 -20 22zM514 578h459l-164 466 q-47 135 -59 205h-11q-14 -98 -53 -205zM817 1628v180q0 23 21 23h258q22 0 22 -23v-180q0 -23 -20 -22h-260q-20 0 -21 22z" />
<glyph unicode="&#xc5;" horiz-adv-x="1507" d="M4 25l545 1445q6 17 22 17h365q18 0 25 -17l526 -1447l2 -9q0 -14 -19 -14h-284q-18 0 -25 16l-112 330h-615l-117 -330q-6 -16 -24 -16h-273q-23 0 -16 25zM514 578h459l-164 466q-47 135 -59 205h-11q-14 -98 -53 -205zM526 1790q0 90 64.5 154.5t154.5 64.5t155 -64.5 t65 -154.5t-64.5 -154.5t-155.5 -64.5q-90 0 -154.5 64.5t-64.5 154.5zM631 1790q0 -45 34.5 -80t79.5 -35q47 0 81 34t34 81t-33.5 81t-81.5 34q-47 0 -80.5 -34t-33.5 -81z" />
<glyph unicode="&#xc6;" horiz-adv-x="2011" d="M14 25l797 1448q8 14 25 14h1017q20 0 21 -21v-196q0 -20 -21 -21h-524v-364h492q23 0 22 -21v-196q0 -20 -22 -21h-492v-409h553q20 0 21 -21v-197q0 -20 -21 -20h-833q-20 0 -21 20v338h-504l-182 -344q-8 -14 -25 -14h-288q-29 0 -15 25zM641 590h387v684h-22z" />
<glyph unicode="&#xc7;" horiz-adv-x="1431" d="M82 743q0 250 87 426.5t244.5 265.5t364.5 89q219 0 356.5 -105.5t192.5 -296.5l2 -8q0 -12 -16 -16l-250 -54h-4q-14 0 -19 17q-16 100 -87.5 161.5t-174.5 61.5q-172 0 -269 -133t-97 -408q0 -274 88 -407t248 -133q133 0 208.5 73.5t96.5 167.5q6 18 24 17l252 -55 q20 -2 17 -25q-16 -76 -71.5 -165t-178.5 -165t-320 -86l-63 -96q41 10 82 10q94 0 136 -49t42 -109q0 -37 -21.5 -79.5t-77 -75.5t-149.5 -33q-102 0 -229 45q-20 6 -13 27l21 51q8 18 26 12q59 -20 90 -28.5t72 -8.5t74 23.5t33 58.5q0 39 -24.5 62.5t-65.5 23.5 q-49 0 -78 -12q-16 -6 -27 4l-16 10q-16 12 -4 29l86 135q-272 20 -430 221t-158 557z" />
<glyph unicode="&#xc8;" horiz-adv-x="1239" d="M143 20v1446q0 21 23 21h921q23 0 23 -21v-196q0 -20 -23 -21h-630v-364h596q20 0 20 -21v-196q0 -20 -20 -21h-596v-409h653q20 0 20 -21v-197q0 -20 -20 -20h-944q-23 0 -23 20zM287 1884q0 10 16 10h289q14 0 24 -12l183 -268q4 -8 4 -12q0 -12 -19 -13h-172 q-16 0 -24 10l-295 271q-6 6 -6 14z" />
<glyph unicode="&#xc9;" horiz-adv-x="1239" d="M143 20v1446q0 21 23 21h921q23 0 23 -21v-196q0 -20 -23 -21h-630v-364h596q20 0 20 -21v-196q0 -20 -20 -21h-596v-409h653q20 0 20 -21v-197q0 -20 -20 -20h-944q-23 0 -23 20zM426 1614l182 268q11 12 25 12h289q14 0 17 -7t-7 -17l-295 -271q-8 -10 -25 -10h-172 q-29 0 -14 25z" />
<glyph unicode="&#xca;" horiz-adv-x="1239" d="M143 20v1446q0 21 23 21h921q23 0 23 -21v-196q0 -20 -23 -21h-630v-364h596q20 0 20 -21v-196q0 -20 -20 -21h-596v-409h653q20 0 20 -21v-197q0 -20 -20 -20h-944q-23 0 -23 20zM251 1596.5q-5 7.5 5 17.5l207 268q14 12 29 12h241q15 0 27 -12l207 -268q6 -6 6 -12 q0 -12 -17 -13h-190q-14 0 -27 13l-127 167l-127 -167q-12 -12 -28 -13h-187q-14 0 -19 7.5z" />
<glyph unicode="&#xcb;" horiz-adv-x="1239" d="M143 20v1446q0 21 23 21h921q23 0 23 -21v-196q0 -20 -23 -21h-630v-364h596q20 0 20 -21v-196q0 -20 -20 -21h-596v-409h653q20 0 20 -21v-197q0 -20 -20 -20h-944q-23 0 -23 20zM240 1628v180q0 23 22 23h258q21 0 21 -23v-180q0 -23 -21 -22h-260q-20 0 -20 22z M684 1628v180q0 23 21 23h258q20 0 20 -23v-180q0 -23 -20 -22h-258q-20 0 -21 22z" />
<glyph unicode="&#xcc;" horiz-adv-x="618" d="M-25 1915q0 10 17 10h289q16 0 24 -12l182 -266q5 -9 5 -13q0 -12 -19 -12h-172q-16 0 -25 10l-294 269q-6 6 -7 14zM143 20v1446q0 21 23 21h270q20 0 21 -21v-1446q0 -20 -21 -20h-270q-23 0 -23 20z" />
<glyph unicode="&#xcd;" horiz-adv-x="618" d="M115 1614l182 268q9 12 25 12h288q14 0 17.5 -7t-6.5 -17l-295 -271q-8 -10 -25 -10h-172q-29 0 -14 25zM143 20v1446q0 21 23 21h270q20 0 21 -21v-1446q0 -20 -21 -20h-270q-23 0 -23 20z" />
<glyph unicode="&#xce;" horiz-adv-x="618" d="M-60.5 1596.5q-5.5 7.5 5.5 17.5l207 268q16 12 28 12h242q15 0 27 -12l206 -268q6 -6 7 -12q0 -12 -17 -13h-190q-14 0 -27 13l-127 167l-127 -167q-12 -12 -29 -13h-186q-14 0 -19.5 7.5zM143 20v1446q0 21 23 21h270q20 0 21 -21v-1446q0 -20 -21 -20h-270 q-23 0 -23 20z" />
<glyph unicode="&#xcf;" horiz-adv-x="618" d="M-72 1659v182q0 20 23 21h258q20 -1 20 -21v-182q0 -20 -20 -21h-258q-23 0 -23 21zM143 20v1446q0 21 23 21h270q20 0 21 -21v-1446q0 -20 -21 -20h-270q-23 0 -23 20zM373 1659v182q0 20 20 21h258q21 -1 21 -21v-182q0 -20 -21 -21h-258q-20 0 -20 21z" />
<glyph unicode="&#xd0;" horiz-adv-x="1507" d="M-8 745v95q0 20 20 20h131v606q0 20 23 21h567q162 0 314.5 -70.5t256 -238.5t103.5 -439q0 -367 -205 -553t-569 -186h-467q-23 0 -23 20v705h-131q-20 0 -20 20zM457 238h188q211 0 320.5 141t111.5 366q-2 219 -105.5 361.5t-322.5 142.5h-192v-389h305q23 0 22 -20 v-95q0 -20 -22 -20h-305v-487z" />
<glyph unicode="&#xd1;" horiz-adv-x="1585" d="M143 20v1446q0 21 23 21h364q16 0 25 -14l389 -707q66 -119 122 -245t71 -195h14q-14 133 -14 409v731q0 20 20 21h246q23 0 22 -21v-1446q0 -20 -22 -20h-375q-16 0 -24 14l-447 836q-90 168 -127 311h-12q14 -240 14 -344v-797q0 -20 -20 -20h-246q-23 0 -23 20z M410 1665q29 127 80 178t141 51q55 0 157 -41q98 -37 146 -36q70 0 94 71q4 16 23 17h94q23 0 16 -23q-29 -127 -80 -178t-141 -51q-55 0 -158 41q-98 37 -145 37q-70 0 -94 -72q-4 -16 -23 -17h-94q-22 0 -16 23z" />
<glyph unicode="&#xd2;" horiz-adv-x="1546" d="M68 743q0 250 87 426.5t243.5 265.5t365.5 89t365.5 -89t244.5 -265.5t88 -426.5t-88 -425t-244.5 -264t-365.5 -89t-365.5 89t-243.5 264.5t-87 424.5zM397 743q0 -274 97.5 -407t269.5 -133t270.5 134t98.5 406q0 274 -98.5 407.5t-270.5 133.5t-269.5 -133t-97.5 -408 zM438 1915q0 10 17 10h288q16 0 25 -12l182 -266q4 -9 4 -13q0 -12 -18 -12h-172q-16 0 -25 10l-295 269q-6 6 -6 14z" />
<glyph unicode="&#xd3;" horiz-adv-x="1546" d="M68 743q0 250 87 426.5t243.5 265.5t365.5 89t365.5 -89t244.5 -265.5t88 -426.5t-88 -425t-244.5 -264t-365.5 -89t-365.5 89t-243.5 264.5t-87 424.5zM397 743q0 -274 97.5 -407t269.5 -133t270.5 134t98.5 406q0 274 -98.5 407.5t-270.5 133.5t-269.5 -133t-97.5 -408 zM575.5 1629q-4.5 7 4.5 18l180 266q10 12 26 12h287q14 0 17.5 -8t-7.5 -16l-292 -269q-8 -10 -27 -10h-170q-14 0 -18.5 7z" />
<glyph unicode="&#xd4;" horiz-adv-x="1546" d="M68 743q0 250 87 426.5t243.5 265.5t365.5 89t365.5 -89t244.5 -265.5t88 -426.5t-88 -425t-244.5 -264t-365.5 -89t-365.5 89t-243.5 264.5t-87 424.5zM397 743q0 -274 97.5 -407t269.5 -133t270.5 134t98.5 406q0 274 -98.5 407.5t-270.5 133.5t-269.5 -133t-97.5 -408 zM404.5 1630q-3.5 8 5.5 17l206 266q12 12 27 12h242q16 0 28 -12l207 -266q6 -6 6 -13q0 -12 -16 -12h-190q-14 0 -27 12l-129 166l-127 -166q-12 -12 -27 -12h-188q-14 0 -17.5 8z" />
<glyph unicode="&#xd5;" horiz-adv-x="1546" d="M68 743q0 250 87 426.5t243.5 265.5t365.5 89t365.5 -89t244.5 -265.5t88 -426.5t-88 -425t-244.5 -264t-365.5 -89t-365.5 89t-243.5 264.5t-87 424.5zM389 1665q29 127 80 178t141 51q55 0 158 -41q98 -37 145 -36q70 0 95 71q4 16 22 17h94q23 0 17 -23 q-29 -127 -80 -178t-141 -51q-55 0 -158 41q-98 37 -146 37q-70 0 -94 -72q-4 -16 -22 -17h-94q-23 0 -17 23zM397 743q0 -274 97.5 -407t269.5 -133t270.5 134t98.5 406q0 274 -98.5 407.5t-270.5 133.5t-269.5 -133t-97.5 -408z" />
<glyph unicode="&#xd6;" horiz-adv-x="1546" d="M68 743q0 250 87 426.5t243.5 265.5t365.5 89t365.5 -89t244.5 -265.5t88 -426.5t-88 -425t-244.5 -264t-365.5 -89t-365.5 89t-243.5 264.5t-87 424.5zM393 1659v182q0 20 21 21h258q22 -1 22 -21v-182q0 -20 -22 -21h-258q-20 0 -21 21zM397 743q0 -274 97.5 -407 t269.5 -133t270.5 134t98.5 406q0 274 -98.5 407.5t-270.5 133.5t-269.5 -133t-97.5 -408zM836 1659v182q0 20 20 21h260q21 -1 21 -21v-182q0 -20 -21 -21h-260q-20 0 -20 21z" />
<glyph unicode="&#xd7;" horiz-adv-x="1253" d="M137 874q0 4 8 17l111 110q8 8 16 9q8 0 15 -9l331 -335l332 335q14 14 29 0l111 -110q10 -10 10 -17q0 -4 -10 -14l-334 -332l334 -331q10 -6 10 -15q0 -4 -10 -14l-111 -111q-6 -8 -14 -8q-6 0 -15 8l-332 334l-331 -334q-6 -8 -15 -8q-8 0 -16 8l-111 111q-14 14 0 29 l334 331l-334 332q-8 12 -8 14z" />
<glyph unicode="&#xd8;" horiz-adv-x="1546" d="M68 743q0 250 87 426.5t243.5 265.5t365.5 89q289 0 467 -164l112 129q18 14 29 0l60 -49q8 -8 8 -17q0 -6 -6 -16l-121 -135q150 -201 149 -529q0 -250 -88 -425t-244.5 -264t-365.5 -89q-287 0 -463 162l-115 -131q-16 -12 -32 -2l-58 51q-12 21 0 33l121 137 q-150 197 -149 528zM397 743q0 -174 39 -282l602 682q-94 141 -274 141q-172 0 -269.5 -133t-97.5 -408zM492 342q92 -139 272 -139q172 0 270.5 134t98.5 406q0 170 -39 281z" />
<glyph unicode="&#xd9;" horiz-adv-x="1470" d="M129 586v880q0 20 21 21h260q20 0 20 -21v-880q0 -184 68.5 -283.5t228.5 -99.5t228.5 99t68.5 284v880q0 20 20 21h259q22 -1 22 -21v-880q0 -621 -618 -621q-281 0 -429.5 158t-148.5 463zM401 1915q0 10 17 10h289q16 0 24 -12l182 -266q5 -9 5 -13q0 -12 -19 -12 h-172q-16 0 -25 10l-294 269q-6 6 -7 14z" />
<glyph unicode="&#xda;" horiz-adv-x="1470" d="M129 586v880q0 20 21 21h260q20 0 20 -21v-880q0 -184 68.5 -283.5t228.5 -99.5t228.5 99t68.5 284v880q0 20 20 21h259q22 -1 22 -21v-880q0 -621 -618 -621q-281 0 -429.5 158t-148.5 463zM541 1647l182 266q11 12 25 12h288q14 0 17.5 -7t-6.5 -17l-295 -269 q-8 -10 -25 -10h-172q-29 0 -14 25z" />
<glyph unicode="&#xdb;" horiz-adv-x="1470" d="M129 586v880q0 20 21 21h260q20 0 20 -21v-880q0 -184 68.5 -283.5t228.5 -99.5t228.5 99t68.5 284v880q0 20 20 21h259q22 -1 22 -21v-880q0 -621 -618 -621q-281 0 -429.5 158t-148.5 463zM366.5 1630q-4.5 8 6.5 17l207 266q12 12 26 12h242q14 0 26 -12l207 -266 q6 -6 6 -13q0 -12 -16 -12h-190q-14 0 -27 12l-127 166l-127 -166q-12 -12 -29 -12h-186q-14 0 -18.5 8z" />
<glyph unicode="&#xdc;" horiz-adv-x="1470" d="M129 586v880q0 20 21 21h260q20 0 20 -21v-880q0 -184 68.5 -283.5t228.5 -99.5t228.5 99t68.5 284v880q0 20 20 21h259q22 -1 22 -21v-880q0 -621 -618 -621q-281 0 -429.5 158t-148.5 463zM354 1659v182q0 20 23 21h258q20 -1 20 -21v-182q0 -20 -20 -21h-258 q-23 0 -23 21zM799 1659v182q0 20 20 21h258q23 -1 23 -21v-182q0 -20 -23 -21h-258q-20 0 -20 21z" />
<glyph unicode="&#xdd;" horiz-adv-x="1392" d="M4 1475q0 12 19 12h319q14 0 27 -14l252 -463q23 -43 73 -174h6q25 84 76 182l248 455q8 14 25 14h305q29 0 14 -25l-526 -887v-555q0 -20 -21 -20h-272q-20 0 -21 20v555l-520 887q-4 9 -4 13zM504 1647l182 266q11 12 25 12h288q14 0 17.5 -7t-6.5 -17l-295 -269 q-8 -10 -25 -10h-172q-29 0 -14 25z" />
<glyph unicode="&#xde;" horiz-adv-x="1275" d="M117 20v1446q0 21 20 21h273q20 0 20 -21v-182h279q254 0 378.5 -127t124.5 -328q0 -164 -71.5 -270t-185 -155.5t-244.5 -49.5h-281v-334q0 -20 -20 -20h-273q-20 0 -20 20zM430 586h246q94 0 164.5 66.5t70.5 178.5q0 100 -49 162t-155 62h-277v-469z" />
<glyph unicode="&#xdf;" horiz-adv-x="1316" d="M150 20v1125q0 213 119.5 358.5t420.5 145.5q150 0 248 -59.5t144 -153t46 -197.5q0 -141 -74.5 -236.5t-199.5 -119.5v-13q176 -20 271.5 -133.5t95.5 -296.5q0 -147 -58.5 -251.5t-157 -159t-219.5 -54.5q-102 0 -215 25q-18 6 -14 25l39 178q4 23 25 14q45 -20 92 -20 q109 0 164 78.5t55 187.5q0 137 -62.5 216t-218.5 79q-18 0 -28 -2h-5q-18 0 -18 18v170q0 20 21 21q229 8 229 229q0 92 -43 164t-154 72q-109 0 -155.5 -71t-46.5 -173v-1166q0 -20 -21 -20h-258q-23 0 -22 20z" />
<glyph unicode="&#xe0;" horiz-adv-x="1198" d="M49 352q0 227 162 329.5t436 102.5h131v95q0 86 -48 140t-150 54q-94 0 -137.5 -41t-75.5 -129q-12 -20 -29 -12l-223 59q-23 8 -13 27q66 141 175.5 219t312.5 78q219 0 348 -107.5t129 -343.5v-610q0 -74 8 -193v-4q0 -16 -18 -16h-246q-20 0 -23 20l-10 168 q-168 -213 -383 -213q-162 0 -254 103.5t-92 273.5zM264 1675q0 12 19 13h286q18 0 27 -13l180 -268q4 -4 4 -12q0 -12 -18 -13h-170q-18 0 -27 11l-293 270q-8 6 -8 12zM338 379q0 -80 42 -127t114 -47q57 0 95 12t74.5 39t114.5 94v254h-88q-184 0 -268 -56t-84 -169z" />
<glyph unicode="&#xe1;" horiz-adv-x="1198" d="M49 352q0 227 162 329.5t436 102.5h131v95q0 86 -48 140t-150 54q-94 0 -137.5 -41t-75.5 -129q-12 -20 -29 -12l-223 59q-23 8 -13 27q66 141 175.5 219t312.5 78q219 0 348 -107.5t129 -343.5v-610q0 -74 8 -193v-4q0 -16 -18 -16h-246q-20 0 -23 20l-10 168 q-168 -213 -383 -213q-162 0 -254 103.5t-92 273.5zM338 379q0 -80 42 -127t114 -47q57 0 95 12t74.5 39t114.5 94v254h-88q-184 0 -268 -56t-84 -169zM406 1407l182 268q10 13 24 13h289q14 0 17.5 -7.5t-7.5 -17.5l-295 -270q-8 -10 -24 -11h-172q-29 0 -14 25z" />
<glyph unicode="&#xe2;" horiz-adv-x="1198" d="M49 352q0 227 162 329.5t436 102.5h131v95q0 86 -48 140t-150 54q-94 0 -137.5 -41t-75.5 -129q-12 -20 -29 -12l-223 59q-23 8 -13 27q66 141 175.5 219t312.5 78q219 0 348 -107.5t129 -343.5v-610q0 -74 8 -193v-4q0 -16 -18 -16h-246q-20 0 -23 20l-10 168 q-168 -213 -383 -213q-162 0 -254 103.5t-92 273.5zM230.5 1390.5q-3.5 8.5 5.5 16.5l206 268q12 12 29 13h242q14 -1 26 -13l207 -268q6 -6 6 -12q0 -12 -16 -13h-191q-14 0 -26 13l-127 168l-129 -168q-12 -12 -27 -13h-188q-14 0 -17.5 8.5zM338 379q0 -80 42 -127 t114 -47q57 0 95 12t74.5 39t114.5 94v254h-88q-184 0 -268 -56t-84 -169z" />
<glyph unicode="&#xe3;" horiz-adv-x="1198" d="M49 352q0 227 162 329.5t436 102.5h131v95q0 86 -48 140t-150 54q-94 0 -137.5 -41t-75.5 -129q-12 -20 -29 -12l-223 59q-23 8 -13 27q66 141 175.5 219t312.5 78q219 0 348 -107.5t129 -343.5v-610q0 -74 8 -193v-4q0 -16 -18 -16h-246q-20 0 -23 20l-10 168 q-168 -213 -383 -213q-162 0 -254 103.5t-92 273.5zM215 1427q29 127 80 178.5t141 51.5q55 0 158 -41q98 -37 145 -37q72 0 95 72q4 16 22 16h94q23 0 17 -22q-29 -127 -80 -178.5t-142 -51.5q-49 0 -157 39q-98 37 -146 37q-72 0 -94 -70q-4 -18 -22 -18h-95 q-22 -1 -16 24zM338 379q0 -80 42 -127t114 -47q57 0 95 12t74.5 39t114.5 94v254h-88q-184 0 -268 -56t-84 -169z" />
<glyph unicode="&#xe4;" horiz-adv-x="1198" d="M49 352q0 227 162 329.5t436 102.5h131v95q0 86 -48 140t-150 54q-94 0 -137.5 -41t-75.5 -129q-12 -20 -29 -12l-223 59q-23 8 -13 27q66 141 175.5 219t312.5 78q219 0 348 -107.5t129 -343.5v-610q0 -74 8 -193v-4q0 -16 -18 -16h-246q-20 0 -23 20l-10 168 q-168 -213 -383 -213q-162 0 -254 103.5t-92 273.5zM219 1421v181q0 23 21 22h260q20 1 20 -22v-181q0 -23 -20 -22h-260q-20 0 -21 22zM338 379q0 -80 42 -127t114 -47q57 0 95 12t74.5 39t114.5 94v254h-88q-184 0 -268 -56t-84 -169zM662 1421v181q0 23 22 22h258 q21 1 21 -22v-181q0 -23 -21 -22h-258q-23 0 -22 22z" />
<glyph unicode="&#xe5;" horiz-adv-x="1198" d="M49 352q0 227 162 329.5t436 102.5h131v95q0 86 -48 140t-150 54q-94 0 -137.5 -41t-75.5 -129q-12 -20 -29 -12l-223 59q-23 8 -13 27q66 141 175.5 219t312.5 78q219 0 348 -107.5t129 -343.5v-610q0 -74 8 -193v-4q0 -16 -18 -16h-246q-20 0 -23 20l-10 168 q-168 -213 -383 -213q-162 0 -254 103.5t-92 273.5zM338 379q0 -80 42 -127t114 -47q57 0 95 12t74.5 39t114.5 94v254h-88q-184 0 -268 -56t-84 -169zM373 1552q0 90 64.5 155t154.5 65t154.5 -65t64.5 -155t-64.5 -154.5t-154.5 -64.5t-154.5 64.5t-64.5 154.5zM477 1552 q0 -47 34 -80.5t81 -33.5t81 33.5t34 80.5t-34 81t-81 34t-81 -34t-34 -81z" />
<glyph unicode="&#xe6;" horiz-adv-x="1935" d="M49 352q0 113 66.5 210t208 156.5t356.5 59.5h117v72q0 211 -207 211q-80 0 -133.5 -50t-75.5 -114q-6 -20 -29 -14l-225 69q-20 7 -14 25q47 123 161.5 210t315.5 87q270 0 373 -172q51 61 95 97t113.5 55.5t178.5 19.5q168 0 282.5 -86t171 -227.5t56.5 -307.5v-73 q0 -23 -21 -23h-756q0 -197 70 -283t174 -86q162 0 229 170q6 20 25 15l221 -74q20 -6 10 -27q-143 -297 -473 -297q-131 0 -217 31t-135 76t-106 119q-96 -115 -222.5 -170.5t-230.5 -55.5q-123 0 -209 54.5t-128 140.5t-42 182zM350 379q0 -86 51.5 -126t118.5 -40 q78 0 150.5 50t126.5 112v213h-140q-145 0 -226 -56.5t-81 -152.5zM1083 758h476q0 153 -67 228t-167 75q-129 0 -185.5 -85t-56.5 -218z" />
<glyph unicode="&#xe7;" horiz-adv-x="1122" d="M80 621q0 291 133 472t410 181q139 0 238.5 -57.5t153.5 -138.5t70 -154v-4q0 -14 -16 -19l-238 -65l-8 -2q-12 0 -16 18q-6 90 -55.5 149.5t-135.5 59.5q-117 0 -170 -103.5t-53 -314.5q0 -221 48 -338t180 -117q88 0 139 60.5t65 140.5q6 20 25 14l229 -57 q25 -9 13 -27q-51 -143 -145.5 -236t-291.5 -108l-69 -106q41 10 80 10q94 0 137 -49t43 -109q0 -37 -21.5 -79.5t-77 -75.5t-149.5 -33q-102 0 -229 45q-23 6 -15 27l23 51q8 18 26 12q100 -37 160 -37q43 0 75 23.5t32 58.5q0 39 -23.5 62.5t-64.5 23.5q-49 0 -78 -12 q-16 -6 -27 4l-18 10q-16 12 -6 29l96 145q-246 25 -357.5 206t-111.5 440z" />
<glyph unicode="&#xe8;" d="M59 629q0 193 68 338t197 226t309 81q170 0 288.5 -82t179 -221.5t60.5 -308.5v-93q0 -20 -20 -20h-783q0 -141 60.5 -251t206.5 -110q86 0 146 50.5t83 115.5q6 20 27 15l213 -72q22 -7 14 -27q-131 -295 -477 -295q-174 0 -303 79t-199 226.5t-70 348.5zM285 1677 q0 10 16 11h289q16 0 24 -13l183 -268q4 -8 4 -12q0 -12 -21 -13h-170q-16 0 -24 11l-295 270q-6 6 -6 14zM358 750h502q0 149 -63.5 232t-173.5 79q-127 2 -190.5 -86t-74.5 -225z" />
<glyph unicode="&#xe9;" d="M59 629q0 193 68 338t197 226t309 81q170 0 288.5 -82t179 -221.5t60.5 -308.5v-93q0 -20 -20 -20h-783q0 -141 60.5 -251t206.5 -110q86 0 146 50.5t83 115.5q6 20 27 15l213 -72q22 -7 14 -27q-131 -295 -477 -295q-174 0 -303 79t-199 226.5t-70 348.5zM358 750h502 q0 149 -63.5 232t-173.5 79q-127 2 -190.5 -86t-74.5 -225zM424 1407l182 268q11 13 25 13h289q14 0 17 -7.5t-7 -17.5l-295 -270q-8 -10 -25 -11h-172q-29 0 -14 25z" />
<glyph unicode="&#xea;" d="M59 629q0 193 68 338t197 226t309 81q170 0 288.5 -82t179 -221.5t60.5 -308.5v-93q0 -20 -20 -20h-783q0 -141 60.5 -251t206.5 -110q86 0 146 50.5t83 115.5q6 20 27 15l213 -72q22 -7 14 -27q-131 -295 -477 -295q-174 0 -303 79t-199 226.5t-70 348.5zM249 1389.5 q-5 7.5 5 17.5l207 268q16 12 28 13h242q15 -1 27 -13l207 -268q6 -6 6 -12q0 -12 -17 -13h-190q-14 0 -27 13l-127 168l-127 -168q-12 -12 -28 -13h-187q-14 0 -19 7.5zM358 750h502q0 149 -63.5 232t-173.5 79q-127 2 -190.5 -86t-74.5 -225z" />
<glyph unicode="&#xeb;" d="M59 629q0 193 68 338t197 226t309 81q170 0 288.5 -82t179 -221.5t60.5 -308.5v-93q0 -20 -20 -20h-783q0 -141 60.5 -251t206.5 -110q86 0 146 50.5t83 115.5q6 20 27 15l213 -72q22 -7 14 -27q-131 -295 -477 -295q-174 0 -303 79t-199 226.5t-70 348.5zM238 1421v181 q0 23 20 22h260q21 1 21 -22v-181q0 -23 -21 -22h-260q-20 0 -20 22zM358 750h502q0 149 -63.5 232t-173.5 79q-127 2 -190.5 -86t-74.5 -225zM682 1421v181q0 23 20 22h259q20 1 20 -22v-181q0 -23 -20 -22h-259q-20 0 -20 22z" />
<glyph unicode="&#xec;" horiz-adv-x="581" d="M-43 1677q0 10 16 11h289q14 0 25 -13l180 -268q6 -6 6 -12q0 -12 -20 -13h-170q-16 0 -27 11l-293 270q-6 6 -6 14zM131 20v1209q1 20 21 20h260q20 0 20 -20v-1209q0 -20 -20 -20h-260q-20 0 -21 20z" />
<glyph unicode="&#xed;" horiz-adv-x="581" d="M96 1407l183 268q8 13 24 13h289q14 0 17 -7.5t-7 -17.5l-295 -270q-8 -10 -24 -11h-172q-29 0 -15 25zM131 20v1209q1 20 21 20h260q20 0 20 -20v-1209q0 -20 -20 -20h-260q-20 0 -21 20z" />
<glyph unicode="&#xee;" horiz-adv-x="581" d="M-79.5 1390.5q-4.5 8.5 5.5 16.5l207 268q12 12 29 13h241q15 -1 27 -13l207 -268q6 -6 6 -12q0 -12 -16 -13h-191q-14 0 -26 13l-127 168l-129 -168q-12 -12 -27 -13h-188q-14 0 -18.5 8.5zM131 20v1209q1 20 21 20h260q20 0 20 -20v-1209q0 -20 -20 -20h-260 q-20 0 -21 20z" />
<glyph unicode="&#xef;" horiz-adv-x="581" d="M-90 1421v181q0 23 20 22h260q21 1 21 -22v-181q0 -23 -21 -22h-260q-20 0 -20 22zM131 20v1209q1 20 21 20h260q20 0 20 -20v-1209q0 -20 -20 -20h-260q-20 0 -21 20zM352 1421v181q0 23 23 22h258q20 1 20 -22v-181q0 -23 -20 -22h-258q-23 0 -23 22z" />
<glyph unicode="&#xf0;" horiz-adv-x="1277" d="M59 629q0 135 61.5 259t174.5 201.5t260 77.5q113 0 188 -55l5 4q-86 102 -207 207l-203 -100q-8 -4 -12 -4q-6 0 -17 10l-55 69q-4 7 -4 15q0 10 12 16l170 86q-51 43 -135 94q-10 10 -10 17q0 6 10 12l174 121q16 10 29 0q96 -68 172 -125l198 98q8 4 13 4q12 0 18 -10 l53 -72q4 -4 4 -14q0 -8 -10 -14l-168 -84q424 -381 424 -813q0 -201 -69.5 -348.5t-199.5 -226.5t-304 -79t-303 79t-199 226.5t-70 348.5zM373 625q0 -436 258 -437q260 1 260 437q0 109 -35 189.5t-92 124.5t-123 44q-135 0 -201.5 -97.5t-66.5 -260.5z" />
<glyph unicode="&#xf1;" horiz-adv-x="1316" d="M137 20v1209q0 20 23 20h258q20 0 20 -20v-166q98 94 197.5 152.5t220.5 58.5q305 0 305 -367v-887q0 -20 -20 -20h-260q-20 0 -21 20v822q0 86 -41 132t-114 46q-66 0 -119.5 -34t-147.5 -124v-842q0 -20 -20 -20h-258q-23 0 -23 20zM274 1427q29 127 80.5 178.5 t141.5 51.5q55 0 157 -41q98 -37 146 -37q68 0 94 72q4 16 22 16h95q23 0 16 -22q-31 -127 -81 -178.5t-140 -51.5q-49 0 -158 39q-98 37 -145 37q-72 0 -94 -70q-4 -18 -23 -18h-94q-23 -1 -17 24z" />
<glyph unicode="&#xf2;" horiz-adv-x="1277" d="M59 629q0 190 71 336.5t200 227.5t301 81q180 0 309 -81t196.5 -226.5t67.5 -337.5q0 -201 -72.5 -348.5t-202.5 -226.5t-298 -79q-174 0 -303 79t-199 226.5t-70 348.5zM305 1677q0 10 17 11h288q14 0 25 -13l182 -268q4 -8 4 -12q0 -12 -18 -13h-172q-16 0 -25 11 l-295 270q-6 6 -6 14zM373 625q0 -437 258 -437q260 0 260 437q0 436 -260 436q-258 0 -258 -436z" />
<glyph unicode="&#xf3;" horiz-adv-x="1277" d="M59 629q0 190 71 336.5t200 227.5t301 81q180 0 309 -81t196.5 -226.5t67.5 -337.5q0 -201 -72.5 -348.5t-202.5 -226.5t-298 -79q-174 0 -303 79t-199 226.5t-70 348.5zM373 625q0 -437 258 -437q260 0 260 437q0 436 -260 436q-258 0 -258 -436zM444 1407l183 268 q10 13 24 13h289q14 0 17.5 -7.5t-7.5 -17.5l-295 -270q-8 -10 -24 -11h-172q-29 0 -15 25z" />
<glyph unicode="&#xf4;" horiz-adv-x="1277" d="M59 629q0 190 71 336.5t200 227.5t301 81q180 0 309 -81t196.5 -226.5t67.5 -337.5q0 -201 -72.5 -348.5t-202.5 -226.5t-298 -79q-174 0 -303 79t-199 226.5t-70 348.5zM271.5 1390.5q-3.5 8.5 4.5 16.5l207 268q12 12 27 13h242q14 -1 26 -13l207 -268q8 -6 8 -12 q0 -12 -18 -13h-189q-16 0 -28 13l-127 168l-127 -168q-12 -12 -27 -13h-188q-14 0 -17.5 8.5zM373 625q0 -437 258 -437q260 0 260 437q0 436 -260 436q-258 0 -258 -436z" />
<glyph unicode="&#xf5;" horiz-adv-x="1277" d="M59 629q0 190 71 336.5t200 227.5t301 81q180 0 309 -81t196.5 -226.5t67.5 -337.5q0 -201 -72.5 -348.5t-202.5 -226.5t-298 -79q-174 0 -303 79t-199 226.5t-70 348.5zM254 1427q31 127 82 178.5t141 51.5q55 0 158 -41q98 -37 143 -37q72 0 94 72q4 16 25 16h92 q25 0 19 -22q-31 -127 -81 -178.5t-141 -51.5q-49 0 -157 39q-98 37 -146 37q-72 0 -94 -70q-4 -18 -22 -18h-95q-24 -1 -18 24zM373 625q0 -437 258 -437q260 0 260 437q0 436 -260 436q-258 0 -258 -436z" />
<glyph unicode="&#xf6;" horiz-adv-x="1277" d="M59 629q0 190 71 336.5t200 227.5t301 81q180 0 309 -81t196.5 -226.5t67.5 -337.5q0 -201 -72.5 -348.5t-202.5 -226.5t-298 -79q-174 0 -303 79t-199 226.5t-70 348.5zM258 1421v181q0 23 23 22h258q20 1 20 -22v-181q0 -23 -20 -22h-258q-23 0 -23 22zM373 625 q0 -437 258 -437q260 0 260 437q0 436 -260 436q-258 0 -258 -436zM702 1421v181q0 23 21 22h258q23 1 23 -22v-181q0 -23 -23 -22h-258q-20 0 -21 22z" />
<glyph unicode="&#xf7;" horiz-adv-x="1253" d="M92 449v159q0 20 21 21h1011q20 0 21 -21v-159q0 -20 -21 -21h-1011q-21 1 -21 21zM451 96q0 70 50 119t120 49q66 0 116.5 -50t50.5 -118q0 -63 -51 -116.5t-114 -53.5q-70 0 -121 51.5t-51 118.5zM451 961q0 69 50 119t120 50q66 0 116.5 -51t50.5 -118 q0 -63 -51 -114.5t-114 -51.5q-70 0 -121 49t-51 117z" />
<glyph unicode="&#xf8;" horiz-adv-x="1277" d="M49 41q0 8 8 16l121 138q-119 172 -119 434q0 193 68 338t197 226t307 81q229 0 377 -131l112 127q18 14 29 0l55 -45q8 -8 8 -17q0 -6 -6 -16l-123 -135q121 -168 121 -428q0 -201 -69.5 -348.5t-199.5 -226.5t-304 -79q-229 0 -377 131l-113 -126q-18 -14 -28 0l-54 45 q-10 10 -10 16zM373 625q0 -109 16 -191l440 504q-63 127 -198 123q-123 2 -190.5 -105.5t-67.5 -330.5zM432 309q64 -121 199 -121q260 0 260 437q0 94 -19 190z" />
<glyph unicode="&#xf9;" horiz-adv-x="1275" d="M125 342v887q0 20 20 20h261q20 0 20 -20v-821q0 -86 39 -132.5t102 -46.5q66 0 117 35t150 127v838q0 20 20 20h260q20 0 21 -20v-1209q-1 -20 -21 -20h-260q-20 0 -20 20v170q-96 -96 -195.5 -155.5t-222.5 -59.5q-158 0 -224.5 103.5t-66.5 263.5zM305 1677 q0 10 17 11h288q14 0 25 -13l182 -268q4 -8 4 -12q0 -12 -18 -13h-172q-16 0 -25 11l-295 270q-6 6 -6 14z" />
<glyph unicode="&#xfa;" horiz-adv-x="1275" d="M125 342v887q0 20 20 20h261q20 0 20 -20v-821q0 -86 39 -132.5t102 -46.5q66 0 117 35t150 127v838q0 20 20 20h260q20 0 21 -20v-1209q-1 -20 -21 -20h-260q-20 0 -20 20v170q-96 -96 -195.5 -155.5t-222.5 -59.5q-158 0 -224.5 103.5t-66.5 263.5zM444 1407l183 268 q10 13 24 13h289q14 0 17.5 -7.5t-7.5 -17.5l-295 -270q-8 -10 -24 -11h-172q-29 0 -15 25z" />
<glyph unicode="&#xfb;" horiz-adv-x="1275" d="M125 342v887q0 20 20 20h261q20 0 20 -20v-821q0 -86 39 -132.5t102 -46.5q66 0 117 35t150 127v838q0 20 20 20h260q20 0 21 -20v-1209q-1 -20 -21 -20h-260q-20 0 -20 20v170q-96 -96 -195.5 -155.5t-222.5 -59.5q-158 0 -224.5 103.5t-66.5 263.5zM271.5 1390.5 q-3.5 8.5 4.5 16.5l207 268q12 12 27 13h242q14 -1 26 -13l207 -268q8 -6 8 -12q0 -12 -18 -13h-189q-16 0 -28 13l-127 168l-127 -168q-12 -12 -27 -13h-188q-14 0 -17.5 8.5z" />
<glyph unicode="&#xfc;" horiz-adv-x="1275" d="M125 342v887q0 20 20 20h261q20 0 20 -20v-821q0 -86 39 -132.5t102 -46.5q66 0 117 35t150 127v838q0 20 20 20h260q20 0 21 -20v-1209q-1 -20 -21 -20h-260q-20 0 -20 20v170q-96 -96 -195.5 -155.5t-222.5 -59.5q-158 0 -224.5 103.5t-66.5 263.5zM258 1421v181 q0 23 23 22h258q20 1 20 -22v-181q0 -23 -20 -22h-258q-23 0 -23 22zM702 1421v181q0 23 21 22h258q23 1 23 -22v-181q0 -23 -23 -22h-258q-20 0 -21 22z" />
<glyph unicode="&#xfd;" horiz-adv-x="1161" d="M2 1235q0 14 18 14h281q18 0 25 -16l186 -578q14 -45 49 -209q6 -43 19 -98h12q14 143 63 299l187 586q6 16 24 16h258q23 0 17 -22l-445 -1313q-59 -176 -145 -256t-240 -80q-98 0 -196 25q-20 4 -17 22l11 191q4 22 24 16q61 -16 100 -16t68 12t63.5 56t69.5 136 l-430 1207zM387 1407l180 268q13 13 27 13h287q14 0 18 -7.5t-6 -17.5l-295 -270q-8 -10 -27 -11h-170q-29 0 -14 25z" />
<glyph unicode="&#xfe;" horiz-adv-x="1316" d="M137 -387v1989q0 22 23 22h258q20 0 20 -22v-498q72 63 116 96t100.5 53.5t129.5 20.5q240 0 338.5 -193.5t98.5 -449.5q0 -322 -110 -489t-325 -167q-98 0 -182 40t-166 132v-534q0 -20 -20 -21h-258q-23 0 -23 21zM438 344q105 -139 242 -139q119 0 176 113.5t57 310.5 q0 416 -247 415q-121 0 -228 -139v-561z" />
<glyph unicode="&#xff;" horiz-adv-x="1161" d="M2 1235q0 14 18 14h281q18 0 25 -16l186 -578q14 -45 49 -209q6 -43 19 -98h12q14 143 63 299l187 586q6 16 24 16h258q23 0 17 -22l-445 -1313q-59 -176 -145 -256t-240 -80q-98 0 -196 25q-20 4 -17 22l11 191q4 22 24 16q61 -16 100 -16t68 12t63.5 56t69.5 136 l-430 1207zM201 1421v181q0 23 20 22h260q21 1 21 -22v-181q0 -23 -21 -22h-260q-20 0 -20 22zM643 1421v181q0 23 21 22h260q20 1 20 -22v-181q0 -23 -20 -22h-260q-20 0 -21 22z" />
<glyph unicode="&#x152;" horiz-adv-x="1972" d="M80 750q0 250 103.5 416.5t276.5 247.5t386 81q63 0 198 -4q139 -4 179 -4h589q23 0 23 -21v-196q0 -20 -23 -21h-518v-364h484q20 0 20 -21v-196q0 -21 -20 -21h-484v-409h549q20 0 21 -21v-197q0 -20 -21 -20h-684q-39 0 -145 -4q-111 -4 -168 -4q-223 0 -395 84 t-271.5 254t-99.5 420zM410 764q0 -283 144 -400.5t357 -117.5q27 0 84 4v1003q-65 4 -106 4q-145 0 -254 -62t-167 -174t-58 -257z" />
<glyph unicode="&#x153;" horiz-adv-x="2050" d="M59 629q0 193 68 338t197 226t307 81q156 0 247 -49t154 -140q76 92 175.5 140.5t256.5 48.5q168 0 283 -86t171 -227.5t56 -307.5v-73q0 -23 -20 -23h-764q0 -197 69.5 -283t174.5 -86q164 0 231 170q6 20 25 15l221 -74q20 -7 10 -27q-143 -297 -473 -297 q-125 0 -206 29t-124 68t-88 98q-47 -61 -92 -101t-120 -67t-187 -27q-174 0 -303 79t-199 226.5t-70 348.5zM373 625q0 -437 258 -437q260 0 260 437q0 436 -260 436q-258 0 -258 -436zM1190 758h483q0 153 -66.5 228t-168.5 75q-133 0 -190.5 -85t-57.5 -218z" />
<glyph unicode="&#x178;" horiz-adv-x="1392" d="M4 1475q0 12 19 12h319q14 0 27 -14l252 -463q23 -43 73 -174h6q25 84 76 182l248 455q8 14 25 14h305q29 0 14 -25l-526 -887v-555q0 -20 -21 -20h-272q-20 0 -21 20v555l-520 887q-4 9 -4 13zM317 1659v182q0 20 21 21h260q20 -1 20 -21v-182q0 -20 -20 -21h-260 q-20 0 -21 21zM760 1659v182q0 20 20 21h260q21 -1 21 -21v-182q0 -20 -21 -21h-260q-20 0 -20 21z" />
<glyph unicode="&#x2c6;" horiz-adv-x="581" d="M-79.5 1390.5q-4.5 8.5 5.5 16.5l207 268q12 12 29 13h241q15 -1 27 -13l207 -268q6 -6 6 -12q0 -12 -16 -13h-191q-14 0 -26 13l-127 168l-129 -168q-12 -12 -27 -13h-188q-14 0 -18.5 8.5z" />
<glyph unicode="&#x2dc;" horiz-adv-x="581" d="M-94 1427q29 127 80 178.5t141 51.5q55 0 158 -41q98 -37 145 -37q72 0 94 72q4 16 23 16h94q23 0 16 -22q-29 -127 -80 -178.5t-141 -51.5q-49 0 -157 39q-98 37 -146 37q-68 0 -94 -70q-4 -18 -23 -18h-94q-22 -1 -16 24z" />
<glyph unicode="&#x2000;" horiz-adv-x="1004" />
<glyph unicode="&#x2001;" horiz-adv-x="2009" />
<glyph unicode="&#x2002;" horiz-adv-x="1004" />
<glyph unicode="&#x2003;" horiz-adv-x="2009" />
<glyph unicode="&#x2004;" horiz-adv-x="669" />
<glyph unicode="&#x2005;" horiz-adv-x="502" />
<glyph unicode="&#x2006;" horiz-adv-x="334" />
<glyph unicode="&#x2007;" horiz-adv-x="334" />
<glyph unicode="&#x2008;" horiz-adv-x="251" />
<glyph unicode="&#x2009;" horiz-adv-x="401" />
<glyph unicode="&#x200a;" horiz-adv-x="111" />
<glyph unicode="&#x2010;" horiz-adv-x="657" d="M66 539v172q0 20 20 20h471q23 0 23 -20v-172q0 -20 -23 -21h-471q-20 0 -20 21z" />
<glyph unicode="&#x2011;" horiz-adv-x="657" d="M66 539v172q0 20 20 20h471q23 0 23 -20v-172q0 -20 -23 -21h-471q-20 0 -20 21z" />
<glyph unicode="&#x2012;" horiz-adv-x="657" d="M66 539v172q0 20 20 20h471q23 0 23 -20v-172q0 -20 -23 -21h-471q-20 0 -20 21z" />
<glyph unicode="&#x2013;" horiz-adv-x="1044" d="M-8 547v160q0 20 20 20h1004q20 0 20 -20v-160q0 -20 -20 -21h-1004q-20 0 -20 21z" />
<glyph unicode="&#x2014;" horiz-adv-x="2088" d="M-8 547v160q0 20 20 20h2048q21 0 21 -20v-160q0 -20 -21 -21h-2048q-20 0 -20 21z" />
<glyph unicode="&#x2018;" horiz-adv-x="618" d="M121 1118l174 488q8 18 24 18h183q25 0 18 -25l-131 -485q-4 -20 -22 -20h-230q-10 0 -15 7t-1 17z" />
<glyph unicode="&#x2019;" horiz-adv-x="618" d="M82 1118l131 486q4 20 23 20h227q12 0 17 -7t1 -18l-174 -487q-8 -18 -24 -18h-183q-25 0 -18 24z" />
<glyph unicode="&#x201a;" horiz-adv-x="618" d="M55 -229l131 485q2 20 23 20h227q23 1 17 -24l-172 -488q-6 -16 -27 -16h-180q-29 0 -19 23z" />
<glyph unicode="&#x201c;" horiz-adv-x="1044" d="M121 1118l174 488q8 18 24 18h183q25 0 18 -25l-131 -485q-4 -20 -22 -20h-230q-10 0 -15 7t-1 17zM575 1118l173 488q8 18 24 18h182q25 0 19 -25l-131 -485q-4 -20 -23 -20h-227q-10 0 -15.5 8t-1.5 16z" />
<glyph unicode="&#x201d;" horiz-adv-x="1044" d="M55 1118l131 486q4 20 23 20h227q10 0 15.5 -7t1.5 -18l-172 -487q-8 -18 -27 -18h-180q-29 0 -19 24zM508 1118l131 486q4 20 23 20h229q10 0 15 -7t1 -18l-174 -487q-8 -18 -24 -18h-183q-25 0 -18 24z" />
<glyph unicode="&#x201e;" horiz-adv-x="1044" d="M55 -229l131 485q2 20 23 20h227q23 1 17 -24l-172 -488q-6 -16 -27 -16h-180q-29 0 -19 23zM508 -229l131 485q2 20 23 20h229q22 1 16 -24l-174 -488q-6 -16 -24 -16h-183q-25 0 -18 23z" />
<glyph unicode="&#x2022;" horiz-adv-x="1044" d="M147 748q0 98 49.5 181t133.5 132t184 49t183 -49t132.5 -133t49.5 -185q0 -100 -49.5 -183t-132.5 -132t-183 -49t-184 49t-133.5 133t-49.5 187z" />
<glyph unicode="&#x2026;" horiz-adv-x="2088" d="M207 20v234q0 22 20 22h226q23 0 22 -22v-234q0 -20 -22 -20h-226q-20 0 -20 20zM903 20v234q1 22 21 22h225q20 0 20 -22v-234q0 -20 -20 -20h-225q-20 0 -21 20zM1597 20v234q0 22 23 22h225q20 0 21 -22v-234q0 -20 -21 -20h-225q-23 0 -23 20z" />
<glyph unicode="&#x202f;" horiz-adv-x="401" />
<glyph unicode="&#x2039;" horiz-adv-x="657" d="M53 612q-12 14 0 29l344 473q13 16 29 6l131 -88q16 -12 4 -28l-248 -377l248 -377q4 -4 4 -12q0 -10 -8 -17l-131 -88q-8 -4 -12 -4q-6 0 -17 10z" />
<glyph unicode="&#x203a;" horiz-adv-x="657" d="M76 1014q0 10 8 16l131 86q8 4 12 4q10 0 17 -10l346 -469q8 -14 0 -29l-346 -473q-13 -16 -29 -6l-131 86q-16 12 -4 29l248 379l-248 374q-4 4 -4 13z" />
<glyph unicode="&#x205f;" horiz-adv-x="502" />
<glyph unicode="&#x20ac;" d="M-37 612l43 95q6 14 23 14h67q0 47 4 125h-120q-27 0 -17 24l43 95q6 14 23 14h88q40 221 190 371q96 96 203.5 135t245.5 39q127 0 276 -43q82 -23 158 -62q23 -10 12 -30l-96 -207q-10 -20 -31 -6q-63 49 -139 75q-78 29 -186 29q-125 0 -207 -90q-74 -84 -99 -211h539 q31 0 16 -25l-45 -94q-6 -14 -22 -14h-504q-2 -18 -2 -62v-63h436q29 0 15 -25l-43 -94q-6 -14 -23 -14h-377q4 -68 28.5 -144.5t59.5 -126.5q88 -115 240 -114q119 0 246 61q76 37 149 96q6 8 12 9q12 0 13 -19v-248q0 -16 -15 -24q-61 -37 -149 -68q-135 -43 -283 -43 q-317 0 -491 226q-57 80 -94 186t-46 209h-124q-27 0 -17 24z" />
<glyph unicode="&#x2122;" horiz-adv-x="2088" d="M100 1352v114q0 20 21 21h659q23 0 23 -21v-114q0 -20 -23 -21h-229v-684q0 -20 -21 -20h-157q-23 0 -23 20v684h-229q-21 1 -21 21zM911 647v819q0 20 21 21h250q18 0 24 -17l207 -548l203 548q10 16 24 17h250q20 0 21 -21v-819q0 -20 -21 -20h-149q-23 0 -23 20v610 h-4l-225 -614q-6 -16 -25 -16h-106q-18 0 -25 16l-225 614h-4v-610q0 -20 -23 -20h-149q-20 0 -21 20z" />
<glyph unicode="&#xe000;" horiz-adv-x="1249" d="M0 0v1249h1249v-1249h-1249z" />
<glyph unicode="&#xfb01;" horiz-adv-x="1353" d="M18 954v172q0 20 21 21h160v113q0 412 424 411q90 0 161 -18q18 -2 19 -23v-170q0 -23 -25 -16q-53 14 -123 14q-156 0 -155 -209v-102h225q20 0 20 -21v-172q0 -20 -20 -20h-225v-914q0 -20 -21 -20h-260q-20 0 -20 20v914h-160q-21 0 -21 20zM905 20v1209q1 20 21 20 h258q23 0 22 -20v-1209q0 -20 -22 -20h-258q-20 0 -21 20zM905 1421v181q1 22 21 22h258q23 0 22 -22v-181q0 -23 -22 -22h-258q-20 0 -21 22z" />
<glyph unicode="&#xfb02;" horiz-adv-x="1353" d="M18 954v172q0 20 21 21h160v113q0 412 424 411q90 0 161 -18q18 -2 19 -23v-170q0 -23 -25 -16q-53 14 -123 14q-156 0 -155 -209v-102h225q20 0 20 -21v-172q0 -20 -20 -20h-225v-914q0 -20 -21 -20h-260q-20 0 -20 20v914h-160q-21 0 -21 20zM905 20v1582q1 22 21 22 h258q23 0 22 -22v-1582q0 -20 -22 -20h-258q-20 0 -21 20z" />
</font>
</defs>
</svg>
